<?xml version="1.0" standalone="no"?>
<!DOCTYPE svg PUBLIC "-//W3C//DTD SVG 1.1//EN" "http://www.w3.org/Graphics/SVG/1.1/DTD/svg11.dtd" >
<svg xmlns="http://www.w3.org/2000/svg" xmlns:xlink="http://www.w3.org/1999/xlink" version="1.1">
<metadata></metadata>
<defs>
<font id="wantedpiratesregular" horiz-adv-x="240" >
<font-face units-per-em="2048" ascent="1638" descent="-410" />
<missing-glyph horiz-adv-x="318" />
<glyph unicode="&#xd;" horiz-adv-x="406" />
<glyph horiz-adv-x="0" />
<glyph horiz-adv-x="0" />
<glyph unicode=" "  horiz-adv-x="318" />
<glyph unicode="&#x09;" horiz-adv-x="318" />
<glyph unicode="&#xa0;" horiz-adv-x="318" />
<glyph unicode="$" horiz-adv-x="347" d="M-11 311q0 24 11 50q0 27 5 38q25 60 76 67h21q58 -5 58 -15v-2q-47 -46 -83 -110l-4 -10q-6 -14 -6 -27q0 -26 27 -42q5 0 13 -3q18 0 38 48q17 26 27 51q7 16 25 69l7 17q6 15 16 36q10 24 10 37q0 16 -15 16q-28 0 -72 72v8q0 45 31 119q5 37 41 132l4 10q11 24 92 89 q11 0 71 36q31 0 38 16q13 33 33 65l2 5q7 15 14 36l7 14q2 5 6 24q57 126 77 140q2 3 18 14h4l-2 -22l-7 -12q-20 -60 -24 -69q-3 -6 -13 -27q-24 -87 -42 -129q-15 -36 -15 -56q0 -15 9 -21q30 -14 56 -22q42 -62 42 -74v-2q-1 -3 -1 -9q0 -10 4 -30q-1 -2 -1 -4 q0 -7 10 -15q-1 -3 -1 -53q-10 -7 -19 -7q-53 12 -84 14q-9 5 -16 65q-17 51 -38 53q-21 -31 -27 -46q-5 -18 -7 -24q-16 -28 -17 -31q-23 -83 -36 -113q-8 -28 -8 -43q0 -17 10 -17h2q58 17 68 17q26 0 26 -42q0 -16 -4 -37q3 0 3 -6q0 -20 -33 -109l-6 -15 q-27 -62 -112 -144q-35 -28 -70 -48q-4 -10 -42 -16l-11 -8q-21 -69 -52 -153q-1 -18 -7 -31l-5 -12q-3 -9 -18 -24q-54 8 -54 24q-3 0 -3 5q0 8 9 31q14 25 17 33l3 7q34 96 34 111q0 2 -1 2q-56 12 -84 36q-25 35 -25 73zM231 330q0 -1 1 -1q10 0 80 101l6 15q18 41 18 69 q0 20 -9 34h-7q-9 0 -19 -15q-31 -74 -52 -146q-18 -49 -18 -57zM257 678q0 -20 21 -20h7q83 210 83 229q0 2 -1 2q-12 0 -88 -147l-13 -29q-9 -22 -9 -35z" />
<glyph unicode="0" horiz-adv-x="340" d="M40 390q0 18 7 35l15 36q20 49 37 59q140 126 231 126q79 -10 163 -28q3 0 3 -8q0 -20 -17 -82q-77 -159 -88 -159q-20 -20 -44 -56q-50 -41 -129 -41q-39 3 -39 14q0 1 1 3q28 6 31 14h-17q-11 0 -20 -2q-96 0 -116 44q-16 6 -16 24v2q-2 10 -2 19zM226 429 q0 -51 18 -88l8 -18h2q38 45 61 100l12 28q13 45 13 63q0 12 -6 12q-22 14 -48 16q-33 -22 -49 -61l-10 -24q-1 -14 -1 -28z" />
<glyph unicode="1" horiz-adv-x="340" d="M107 534q3 7 27 10q3 0 21 -1q3 0 5 1q14 0 73 60q15 23 31 35q6 15 25 22q16 3 36 9q23 4 65 6q4 0 20 -1l29 4q29 0 38 -9l-1 -3q-113 -288 -121 -307q0 -1 -4 -7l-3 -13q-1 -1 -1 -4q0 -10 12 -37l-2 -4q-1 -3 -28 -6q-54 -13 -62 -13t-12 2q-9 0 -9 8q0 4 3 11 q3 26 11 64q6 49 11 62l4 9q2 5 2 24q13 36 13 48q2 3 5 9q-4 10 -4 17q0 5 2 8l2 4q1 4 9 12l1 2q1 1 1 2t-1 2q-102 -40 -147 -40q-7 0 -12 2q-39 7 -39 12z" />
<glyph unicode="2" horiz-adv-x="341" d="M-13 295q8 17 11 20l10 31q10 15 16 22q36 28 68 57q68 17 116 47q10 11 21 16q24 0 65 55q1 3 1 6q0 31 -152 53q-51 7 -51 15v1q24 21 64 35q62 5 79 12q59 -4 69 -10q88 -25 130 -41q51 0 80 -34l-11 -27q-6 -14 -38 -67q-2 -14 -7 -24l-4 -11q-7 -13 -11 -14 q-6 -15 -93 -26q-95 -23 -108 -23q-50 0 -58 -20l-2 -4l77 -31q70 -5 108 -37l-1 -2q-7 -17 -24 -25q-28 -16 -68 -16q-179 3 -188 3h-23l-7 2q-1 -2 -4 -2q-62 0 -65 39z" />
<glyph unicode="3" horiz-adv-x="341" d="M43 298l2 5q2 5 60 13q54 13 65 42l10 8q2 5 2 10q0 19 -35 40q-41 10 -53 35l1 2q5 10 20 19h14q27 3 50 6q40 14 51 38l10 8q2 4 2 9q0 20 -36 41q-41 10 -52 35l1 2q4 10 19 19h14q130 16 176 16h10q79 -10 79 -20v-1q13 -9 23 -40q-37 -61 -52 -61q-28 -29 -52 -46 q22 -5 22 -10v-1q13 -9 23 -40q-37 -61 -53 -61q-52 -54 -88 -66q-65 -28 -117 -28q-1 -1 -62 -10q-23 0 -43 33q-11 0 -11 3z" />
<glyph unicode="4" horiz-adv-x="339" d="M29 390l117 115q28 25 31 32q3 9 44 48l-14 12l2 4q5 14 55 39h14q28 0 95 9h5q16 0 16 -20v-2q-8 -65 -13 -127q-11 -46 -11 -64q0 -8 2 -11q80 -8 80 -16v-1l-1 -1q-5 0 -9 -2q-14 2 -23 2h-16q-19 0 -33 -5q-1 -48 -10 -69l-5 -11l3 -6q0 -2 -19 -8q15 -19 16 -24 q0 -1 -9 -2q-23 0 -110 24q1 4 15 19q3 7 3 12t-3 9q2 14 2 23q0 24 -12 24q-77 -3 -105 -6l-99 -1l3 2q-7 0 -11 2zM184 437q0 -6 48 -6l12 1q17 48 17 68v2q-11 -1 -27 -15q-38 -41 -49 -48z" />
<glyph unicode="5" horiz-adv-x="341" d="M-6 282q0 5 3 12l1 2q65 32 138 37l104 31l2 4q1 3 1 5q0 15 -42 15q-13 0 -90 23q-71 10 -71 24v2q-1 0 -1 3q0 4 2 11l5 11q4 10 13 24q13 53 19 67l11 27q58 34 109 34q55 16 164 41q15 6 78 10q11 -7 68 -12q29 -14 35 -35q-4 -9 -64 -16q-186 -24 -271 -54 q-21 -30 -21 -48q0 -28 52 -28q150 -76 163 -104q0 -7 -3 -22l-16 -31q0 -3 -6 -20q-36 -39 -98 -39q-2 0 -2 1v1l-9 -2h-22q-10 0 -191 -3q-40 0 -54 16q-7 5 -7 13z" />
<glyph unicode="6" horiz-adv-x="340" d="M17 330l5 28v2q6 13 43 52q28 35 46 78q25 33 40 58l19 57q3 6 32 37q3 8 23 16q24 28 100 47q45 7 85 7q76 0 92 -43q0 -10 -3 -17q-3 -6 -35 -26q-13 -16 -29 -16q1 4 1 7q0 10 -9 19q-3 28 -29 28q-35 0 -84 -31q-45 -22 -51 -27l-16 -40q-10 -24 -15 -48q92 5 98 5 q39 -8 107 -33q22 -18 22 -32q0 -3 -1 -6q-9 -12 -14 -23l-8 -20q-15 -36 -80 -87q-4 0 -38 -20q-69 -20 -107 -20q-24 1 -38 5q-12 -3 -21 -3q-29 0 -135 46zM165 376q0 -16 12 -16q4 0 10 -1h23q82 0 87 13q2 6 47 35q2 6 2 11q0 24 -62 24h-16q-64 -1 -73 -1 q-8 -8 -12 -17q-2 -4 -7 -24q-1 -3 -11 -17v-7z" />
<glyph unicode="7" horiz-adv-x="340" d="M134 425q7 10 19 19q5 0 30 -1q9 6 59 20.5t77 21.5q5 33 9 60q2 4 2 7q0 9 -14 9q-21 0 -52 -1q-54 12 -68 17q-3 26 -13 26q-15 -2 -17 -2l-7 2l1 3q3 7 79 24q102 3 114 6q11 0 28 24q16 17 55 17h24q20 0 20 -18q0 -5 -2 -12l-1 -3q-40 -64 -45 -76q-3 -11 -4 -13 l-14 -27l-15 -40l-4 -4q16 -9 16 -23q0 -6 -3 -12q-4 -8 -12 -21q-39 -23 -50 -51q-2 -4 -9 -23q-21 -47 -30 -61q1 0 2 -14q-10 -17 -15 -17h-3q-11 0 -11 1q-42 5 -42 19q0 2 1 5q3 7 8 16q6 14 25 14q3 7 5 16l2 5q4 8 15 19q-4 37 -12 41q-15 -3 -27 -3q-6 0 -11 1 q-16 2 -41 16q-20 8 -69 13z" />
<glyph unicode="8" horiz-adv-x="341" d="M57 350q0 7 3 13l9 20q11 28 24 34q39 27 74 44q-13 6 -21 14q-14 3 -16 15q-5 9 -5 18q0 6 3 12l9 21q12 28 25 33q101 72 177 72q67 -6 138 -16q5 0 5 -12t-6 -39q-46 -90 -55 -90q-8 -7 -17 -16h5q5 0 5 -12q0 -13 -6 -40q-46 -90 -55 -90q-15 -11 -31 -32 q-37 -23 -103 -23q-33 2 -33 9v1q23 3 25 8h-15q-9 0 -17 -2q-79 0 -101 25q-14 4 -16 15q-5 9 -5 18zM206 381q4 -39 27 -66l9 -10h1q27 26 40 57l7 16q5 19 5 29q0 13 -7 13q-20 8 -42 9q-25 -12 -34 -34zM274 539q3 -30 17 -52q19 -2 39 -4q13 17 21 36l7 16q5 20 5 30 q0 13 -7 13q-19 8 -42 9q-25 -13 -34 -35z" />
<glyph unicode="9" horiz-adv-x="341" d="M51 325q0 10 3 17q2 5 34 26q13 16 29 16q-1 -4 -1 -7q0 -10 9 -19q3 -28 29 -28q35 0 84 31q45 22 51 27l17 40q10 24 14 48q-92 -5 -97 -5q-39 7 -108 33q-22 18 -22 32q0 3 1 6q9 12 14 23l8 20q15 36 80 87q4 0 38 20q70 20 107 20q24 -1 38 -5q12 2 21 2 q29 0 135 -45l-5 -28v-2q-6 -13 -43 -52q-28 -35 -46 -78q-25 -33 -40 -59l-19 -56q-3 -7 -31 -38q-4 -8 -24 -16q-24 -27 -100 -47q-44 -6 -85 -6q-75 0 -91 43zM206 576q0 -24 63 -24h16q63 1 72 1q9 7 12 17q2 4 7 24q1 2 11 17q1 4 1 7q0 16 -13 16q-3 0 -10 1h-13 q-90 0 -96 -13q-3 -7 -48 -35q-2 -6 -2 -11z" />
<glyph unicode="A" horiz-adv-x="335" d="M-32 281v1q7 9 44 48q-7 12 -7 16v1l10 12l10 24q18 42 77 141q-7 10 -25 10h-14q-9 0 -24 -3q-2 3 -7 3l1 2q8 19 97 36q19 22 85 154q73 128 147 261q27 46 43 46h5q50 -19 77 -19h12q9 -29 9 -51q0 -16 -5 -28l-4 -10l-28 -24q-11 -81 -19 -98q-6 -15 -12 -68 q-29 -119 -29 -151q0 -12 4 -12q81 -12 82 -17l1 -9l-2 -5q-67 -43 -72 -43q-3 0 -19 2q-6 -5 -13 -5v-4l-42 -111q-6 -8 -9 -14q-8 -19 -8 -53q-3 -7 -3 -21q0 -10 2 -25l-7 -26q-23 -14 -33 -14h-6q-13 0 -13 28q0 15 4 39q3 73 25 199q-23 7 -91 12q-16 0 -68 -96 q-15 -17 -26 -43q-7 -31 -10 -39q-112 -50 -133 -50q-6 2 -6 4zM258 587l10 -3q46 0 51 12l2 5v4q0 18 14 94q1 7 1 13q0 17 -7 19q-24 -40 -71 -144z" />
<glyph unicode="B" horiz-adv-x="369" d="M18 306q0 49 31 122q12 29 108 296q28 75 66 192q8 19 25 86l3 6q10 25 50 47q20 -21 61 -21q9 0 32 3q12 -5 12 -17q0 -7 -3 -15q118 35 130 35q137 -18 137 -36v-2q-6 -23 -8 -27q-18 -44 -125 -177q-40 -28 -94 -83q75 -58 76 -112q2 -16 2 -25q0 -6 -1 -8 q-78 -114 -146 -153q-92 -54 -151 -54q-82 -11 -89 -29q-54 -41 -115 -41q-1 6 -1 13zM165 461q2 -3 4 -3q94 0 176 65q8 12 11 21q0 47 -52 47h-51q-55 -52 -88 -130zM295 756h4q20 0 156 95q22 21 54 59l5 12q1 2 1 4q0 8 -16 8h-11q-12 -2 -138 -77q-11 -15 -14 -24 l-14 -32q-6 -14 -27 -45z" />
<glyph unicode="C" horiz-adv-x="298" d="M56 509q0 37 4 48q14 64 34 110q35 84 138 223q109 126 167 126q2 6 47 6q1 -15 49 -25q35 -24 66 -85q14 -31 14 -39v-2l-3 -6q-3 0 -12 -6l-15 3q-5 0 -46 -19h-7q-5 0 -71 50h-7q-39 -12 -58 -59l-30 -70q-9 -22 -26 -81l-12 -29q-4 -11 -13 -28q-20 -47 -22 -157 q34 -47 77 -47q24 0 84 28q-1 -1 -1 -2t1 -1q-34 -54 -37 -54h-5q-5 0 -13 3q-4 0 -42 -44q-59 -28 -123 -44h-13q-20 0 -86 32q-33 59 -36 82q-3 54 -3 87z" />
<glyph unicode="D" horiz-adv-x="336" d="M101 354q0 8 5 20l23 44l47 131q16 57 32 95q6 15 22 44q15 55 53 157q1 4 1 9q0 19 -19 31q-33 18 -33 39q0 6 3 12l3 7q38 66 59 66q67 15 77 29l14 -4h32q91 -43 137 -105q9 -36 15 -84q21 -11 21 -27q0 -5 -2 -10q-4 -8 -54 -138q-17 -42 -99 -172q-56 -57 -84 -106 q-98 -98 -174 -98q-18 0 -41 14q-1 0 -22 -21q-3 0 -3 21q0 13 1 33q-14 0 -14 13zM263 465q19 0 69 77q40 49 69 120q42 99 42 126q0 4 -1 6q-5 18 -14 18h-4q-89 -156 -110 -204l-42 -121z" />
<glyph unicode="E" horiz-adv-x="312" d="M-29 352q0 9 4 20q4 13 9 26l2 3q10 24 50 52l3 6l23 65q2 7 12 23q6 14 14 36q30 68 48 110l14 42q17 29 25 49l10 22q7 16 19 49q-6 0 -6 11q0 21 21 80q18 41 39 58l40 49q90 -22 90 -34v-3q0 -16 159 -51q82 -6 82 -21q0 -1 -1 -2l-3 -6l-9 -16q1 0 1 -2v-2 q-65 -32 -91 -32q-61 -49 -105 -49q-56 -16 -95 -16h-32q-9 0 -37 -65l-5 -13q-8 -17 -8 -25q0 -7 6 -7q16 0 191 6q43 -9 43 -24q0 -3 -1 -5q-6 -14 -74 -39q-76 -48 -83 -48t-50 -13q-99 -8 -111 -36q-11 -22 -16 -35l-4 -10q8 -59 89 -59q51 0 90 -25q17 0 17 -11 q0 -4 -2 -9q-104 -71 -134 -71q-146 -13 -151 -26q-7 0 -14 -3q-69 14 -69 51z" />
<glyph unicode="F" d="M7 313q0 7 6 26q18 25 19 25q7 25 40 106q16 35 19 42q13 31 13 58q0 16 -5 31q7 22 12 36q17 40 53 62q1 5 2 8q12 28 31 70l17 47q1 3 11 22q9 21 43 134l2 6q28 52 53 52h24q35 0 35 -25v-5q-5 -21 -5 -31q0 -11 5 -11q9 -6 108 -11q51 -27 51 -40v-2l-2 -5l-10 -3 q-2 0 -14 3q-11 0 -43 -45q-20 -8 -88 -31q-29 3 -50 3q-19 0 -31 -28q-29 -48 -61 -106q19 -12 34 -41q110 -31 112 -42q27 3 32 3q0 -16 -3 -34q-56 -9 -85 -22q-41 -25 -62 -25h-60q-14 0 -32 8q-13 -7 -59 -72q-2 -19 -8 -34l-3 -8q-9 -16 -14 -28q13 0 13 -10 q0 -6 -4 -15q-5 -15 -10 -28q-13 -31 -69 -42q-1 -2 -12 -2h-3q-2 0 -2 4z" />
<glyph unicode="G" d="M48 395q0 17 8 47q-1 4 -1 10q0 36 45 145v1q0 4 8 28q84 185 92 185q137 225 238 225q15 0 48 -24q36 -6 59 -30l-1 -2q-41 -41 -58 -41q-21 6 -24 6q-48 0 -154 -166q-25 -44 -38 -75q-10 -23 -21 -54q-14 -30 -26 -58q-22 -82 -22 -113q0 -19 8 -19q3 -42 18 -42 q7 10 12 21l2 5q23 83 44 131q4 10 18 70l6 13q22 54 52 54q77 -14 77 -34q0 -2 -1 -4q-2 -12 -7 -24q-3 -7 -36 -58q-10 -35 -27 -81q-21 -49 -64 -112q3 -15 3 -26q0 -9 -2 -14l-5 -14q-7 -14 -36 -40l-4 -13l-6 -14q-11 -26 -47 -26q-18 0 -18 28q0 8 1 17q-7 16 -13 16 q-25 -8 -35 -8h-18q-31 0 -52 27q-22 0 -22 41v10q-1 5 -1 12zM303 337l2 6h2l-2 -6h-2z" />
<glyph unicode="H" d="M-26 288q0 5 6 20q15 21 17 27q-1 4 -1 9q0 21 15 59q34 69 39 81q6 14 18 46q6 0 178 386q2 45 13 73q21 49 61 49q33 -16 49 -16l26 5q4 0 4 -7q0 -9 -6 -28q-36 -64 -130 -260q-2 -10 -7 -21h8q32 20 89 32q6 0 67 146q19 45 19 89q34 57 56 57q77 -17 77 -24 q-1 -4 -9 -30q-46 -83 -68 -127q-2 -20 -13 -46q-4 -11 -38 -76q7 -10 7 -16v-2q-2 -4 -30 -30q-12 -32 -18 -46l-1 -3q-8 -19 -21 -19q-1 -2 -7 -32l-1 -3q-2 -4 -9 -8h-1q-2 3 -2 7t2 9q5 7 14 30l-3 8h-1q-24 -45 -111 -222q5 -17 5 -29q0 -8 -2 -14l-4 -8 q-8 -19 -14 -21h-14q-39 -9 -42 -9q-2 0 -2 11l11 25q5 12 19 73q17 28 18 32q13 36 17 46q19 40 28 59l11 27l5 19q-11 -2 -100 -13q-12 -13 -56 -106q-1 -3 -36 -70l-8 -19q-5 -13 -29 -92q-4 -10 -16 -19h-20q-11 0 -53 -10h-5q-1 0 -1 1z" />
<glyph unicode="I" horiz-adv-x="383" d="M47 347q0 2 1 3l4 10q8 18 95 44q32 8 54 58l85 188q59 140 59 167q0 7 -4 7q-102 16 -102 40q0 3 1 5q-9 17 -27 30l1 7l9 21q31 34 49 34q27 -14 38 -14q81 7 95 41q42 72 54 72q21 0 56 -48l84 -27q13 -24 59 -62l-1 -10l-4 -10q-11 -25 -108 -31q-44 0 -117 -174 q-36 -80 -93 -201l-30 -79q71 -20 106 -72q19 -15 19 -21v-2l-2 -4q-7 -19 -18 -24q-52 7 -88 7h-40q-14 0 -29 -34q-11 -27 -26 -27q-9 0 -24 3q-82 -20 -90 -20h-2q-1 0 -1 2q0 1 1 4l20 48q8 18 8 27q0 11 -10 11q-19 9 -78 24q-4 4 -4 7zM658 889l1 10q12 10 16 10 l-1 -10q-3 -7 -16 -10z" />
<glyph unicode="J" horiz-adv-x="346" d="M-16 374q0 6 2 11q3 8 10 66q1 5 5 15l1 3q34 81 45 81l9 3q-8 -57 -8 -86q0 -18 3 -25q12 -51 37 -51q19 0 93 66q46 49 93 162q4 0 26 53l10 30q13 21 29 54q42 137 42 156q0 3 -1 3q-112 44 -112 66q0 1 1 3l8 18l7 20q16 12 78 18q228 -3 275 -9l9 3q18 0 18 -36 q0 -25 -9 -68q-45 -27 -96 -27q-14 0 -202 -359q-45 -53 -71 -96q-26 -28 -99 -111q-57 -37 -79 -39h-2l-15 9q-35 -21 -41 -21h-8q-40 9 -51 57q-7 19 -7 31z" />
<glyph unicode="K" d="M6 278v10q0 27 14 62q8 19 22 49q73 195 206 524q10 37 21 114l1 3q39 31 63 31q79 -17 79 -53q0 -8 -3 -16l-3 -6q-30 -34 -43 -66l-22 -51l-35 -69q-23 -63 -23 -80q0 -6 3 -6h2q12 7 172 141q2 0 58 38q4 3 9 3h2q1 0 1 -7q0 -9 -2 -34l-2 -3q-19 -14 -90 -96 q-22 -15 -148 -134q76 -103 76 -163q0 -14 -4 -26q-10 -44 -16 -58l-2 -4q-2 -4 -24 -24h-4l-7 24h-3l-25 -20q-21 22 -45 134q-24 75 -38 75l-2 -3l-13 -21q-17 -45 -29 -72q-8 -20 -32 -69q-11 -27 -15 -92l-3 -7h-6q-51 -28 -64 -28h-4q-1 18 -2 18l-17 -18h-3z" />
<glyph unicode="L" horiz-adv-x="361" d="M0 343q0 4 1 10l22 52q62 156 182 446q35 78 47 100q2 11 10 32l2 3q24 50 46 50q14 0 69 -88q3 -9 3 -17q0 -10 -4 -18q-24 -36 -26 -41q-7 -28 -10 -36l-8 -17q-11 -27 -34 -59q-21 -54 -27 -67q-24 -58 -68 -156q-18 -47 -29 -85q7 -3 13 -3h20q57 0 118 -14q8 6 15 6 h6q107 -34 107 -60q0 -2 -1 -5v-5q0 -12 -4 -24l-5 -12q-2 -4 -12 -12h-9q-31 12 -45 12h-48q-40 0 -209 -26q-120 0 -120 22q0 2 1 4q-3 1 -3 8z" />
<glyph unicode="M" horiz-adv-x="567" d="M-37 285q0 7 6 24q19 37 39 85l10 24q109 253 121 281l26 61q116 255 142 255q41 23 56 23q73 0 73 -26q0 -5 -2 -11v-2q0 -13 -23 -86v-3q0 -32 -22 -153v-12q0 -30 -7 -97l3 -37q51 62 208 312q88 125 106 125q15 4 24 4h4q66 -9 75 -21v-1q0 -3 2 -5q-9 -18 -10 -21 q-14 -40 -24 -64q-5 -12 -14 -31q-11 -38 -42 -128q1 0 1 -1q0 -13 -58 -155q-15 -65 -52 -170q1 -10 1 -20q0 -32 -5 -68q-42 -48 -63 -48q-4 0 -31 4q-17 -7 -23 -7h-15q-1 1 -1 3q0 17 33 126q15 65 74 251v5q0 9 3 18h-1q-27 -17 -200 -291q-20 -48 -33 -48 q-26 -6 -79 -17q-25 7 -34 21l1 3q4 9 34 65q9 22 9 50q0 16 -3 34q11 61 12 116q-2 1 -2 101h-2q-45 -73 -65 -122q-18 -46 -23 -57q-51 -100 -59 -119l-21 -58q-17 -32 -25 -51l-9 -20q-11 -27 -38 -27q-3 -3 -73 -20q-4 0 -4 6z" />
<glyph unicode="N" horiz-adv-x="430" d="M-16 313q0 12 8 30q22 49 31 71q26 81 60 172l18 37q3 17 22 67l69 148q9 26 15 40q26 61 66 92q32 12 61 12q48 0 48 -28v-6q10 -20 47 -40q3 -46 3 -95q0 -41 -2 -83q4 -87 9 -92h2q5 12 8 12q18 47 27 68q14 33 72 153l3 7q9 22 40 107l1 3q26 61 91 86h5 q64 -20 64 -39q0 -2 -1 -4l-2 -6q-40 -72 -71 -144l-95 -175q-44 -79 -64 -126q-27 -75 -32 -98l-7 -16q-13 -32 -42 -98q-53 -34 -87 -43q-26 -15 -34 -15q-13 0 -13 37q0 9 1 21q-11 53 -16 104q-12 66 -52 151l-10 3h-3q-14 -25 -15 -28q-14 -33 -68 -165 q-37 -90 -64 -90q-9 0 -83 -39h-8q-2 4 -2 9z" />
<glyph unicode="O" horiz-adv-x="421" d="M116 331q0 12 6 25l4 9q15 15 54 60q11 9 15 9q5 -63 36 -63q47 0 149 123q34 44 96 165q23 47 27 57q7 35 29 114q1 10 1 19q0 62 -30 62q-19 3 -57 3h-16q-22 0 -105 -93q-16 -22 -27 -48q-17 -40 -41 -195q-15 -61 -15 -85q0 -17 7 -17v-5q0 -14 -5 -25q-2 -6 -5 -6 h-7q-17 18 -59 42q-51 82 -51 164q0 54 23 109l3 6q34 82 105 141q119 129 210 129q2 2 40 24q62 -36 145 -75q20 -50 20 -97q0 -22 -4 -44q-5 -23 -36 -105q-114 -270 -310 -413q-70 -36 -93 -42q-9 3 -16 3h-18q-3 0 -5 3q-12 -9 -20 -9h-9q-41 23 -41 55z" />
<glyph unicode="P" horiz-adv-x="217" d="M-14 41q0 8 5 26q18 34 31 46q0 -12 -4 -20l-8 -22q-9 -19 -24 -30zM26 197q0 14 19 72q3 12 3 19t-3 9q43 103 60 139q21 74 25 85l8 18q7 21 39 65q12 42 13 46l17 34q20 67 29 91l63 158q15 35 43 129l1 3q23 56 67 62q37 14 46 14q32 -20 41 -20q-1 -3 -1 -4 q0 -4 4 -4l-1 -3q-7 -17 -32 -56v-2q0 -20 112 -66q33 -20 33 -53v-2q16 -11 16 -30q0 -11 -4 -23q-50 -92 -192 -218q-80 -72 -114 -72q-3 -7 -32 -7h-1q-20 7 -33 7q-56 -69 -84 -138q-26 -42 -122 -236q-12 -21 -18 -21q-2 0 -2 4zM292 601q93 77 109 118l1 3q6 35 6 57 q0 37 -17 37h-7q-2 0 -9 -11l-10 -23q-10 -26 -57 -111q1 0 1 -3q0 -10 -17 -67z" />
<glyph unicode="Q" horiz-adv-x="374" d="M46 400q0 27 5 63q4 9 13 61q32 77 39 119q100 240 279 363q31 21 58 21h8q40 0 100 -85q8 -11 27 -23q9 -22 44 -55q3 0 3 -7q0 -24 -36 -130q-10 -25 -45 -110q-60 -117 -127 -204l-83 -73q-4 -2 -8 -2q1 1 1 2h-1q19 46 80 120q46 75 71 133l2 6q4 9 4 26q0 7 -1 15 q29 68 29 125q0 45 -18 84q-40 44 -58 44q-33 0 -124 -134q-15 -36 -76 -125l-5 -12q-9 -39 -24 -87q2 -3 2 -9q0 -17 -16 -55h-2q-3 -8 -3 -18q0 -13 6 -28q2 -3 5 -3q4 3 8 3q0 16 19 72v8q0 17 6 33l5 12q15 35 47 61q90 -17 90 -46q0 -5 -2 -9q-91 -204 -95 -204 q-16 0 -44 -67q-8 -13 -19 -38l-3 -8q-12 -28 -27 -67q-23 -55 -46 -55q-2 0 -43 -93h-4q-7 0 -7 11q0 14 10 44q-4 -3 -17 -6q13 42 87 250q-2 6 -5 6q-35 -18 -57 -18q-52 0 -52 89z" />
<glyph unicode="R" horiz-adv-x="299" d="M21 334l1 5l30 59q7 26 15 45q6 13 55 123q7 16 7 33q0 5 -1 11q13 30 22 48q32 84 75 212q0 3 8 17q7 18 7 70l5 11q56 72 65 79q74 -52 74 -59q1 -12 1 -23q0 -23 -5 -36q74 -31 114 -75v-3q0 -4 5 -9q5 0 32 3l-1 -14q-48 -114 -144 -193l-15 -16l-1 -3 q-10 -24 -10 -58q0 -33 9 -74q-1 -22 -1 -39q0 -43 9 -45q7 -21 7 -46q0 -29 -9 -63v-3q0 -5 -1 -22l-3 -5h-1q-11 19 -16 19l-12 -8h-3q-7 0 -10 5q-14 -8 -23 -8q-21 0 -45 109q-43 128 -71 137q-12 -14 -13 -17l-15 -39q-17 -22 -34 -61l-11 -12q-3 6 -7 6q-10 0 -57 -89 h-3q-8 33 -15 33h-2q-4 0 -12 -5zM78 317l1 5l7 6v-6zM256 673q0 -12 16 -12v-2q0 -4 9 -4q28 0 112 98l2 6q3 6 3 13q0 24 -37 54q-10 5 -20 5h-3q-28 -41 -42 -70q-9 -24 -12 -30q-23 -45 -25 -45q-3 -8 -3 -13z" />
<glyph unicode="S" horiz-adv-x="344" d="M-35 290q5 11 48 37q54 52 187 127q47 33 128 118h2l1 3q-4 9 -39 17q-38 50 -89 70q-35 45 -35 85q0 8 2 16l10 20q9 20 26 110q11 28 131 108q95 36 132 36h26q7 0 19 4q2 -4 3 -4q26 0 67 21h1q8 0 8 -10q0 -14 -13 -44l-14 -34q-43 -94 -55 -100h-6q-22 13 -30 13 q-128 0 -194 -47l-7 -10l-6 -13q-12 -52 -12 -75q0 -19 8 -19q34 -44 53 -44h2q7 0 55 37h8q6 0 10 -33q17 -9 48 -17q8 -17 8 -38q0 -32 -18 -73q-52 -123 -204 -214q-152 -50 -218 -50h-41z" />
<glyph unicode="T" horiz-adv-x="216" d="M11 263q2 19 10 38l1 3q11 20 18 36q-15 0 -15 11q0 6 4 14l1 4q47 103 50 112l21 61q51 109 67 148q44 105 44 120q0 2 -1 2q-13 6 -19 6q-25 -22 -27 -22q-43 38 -61 38q-15 7 -15 24q0 10 6 25l10 22q42 71 66 71h5q36 0 93 -7q48 65 64 65h2q58 -26 72 -26h3 q9 0 24 3q4 -4 4 -7q0 -2 -1 -3l-6 -12l-15 -32q1 -13 78 -36q9 7 15 7h8q6 0 21 -39q16 -4 16 -11v-2q-9 -17 -67 -51h-5l-8 6q-14 -6 -20 -6q-12 0 -22 13q-43 -32 -77 -49q-63 -71 -68 -83q-50 -113 -106 -222l-3 -6l-14 -39q-25 -31 -44 -77q-2 0 -16 -35q-2 -4 -9 -35 q-13 -12 -75 -23q-2 -4 -9 -6z" />
<glyph unicode="U" horiz-adv-x="383" d="M59 403v11q0 45 15 82q9 38 78 225q17 37 31 70l13 30q9 22 36 117l18 42q48 58 77 58q17 -7 26 -7q4 0 25 3q26 -11 26 -29q0 -6 -3 -13l-9 -23q-105 -229 -115 -229q-18 -35 -53 -112l-5 -12q-13 -30 -13 -80q0 -36 7 -82q9 -16 17 -16q30 0 131 143q55 87 96 182 l21 51q27 64 49 162q19 46 73 105q20 15 36 15h13q17 0 45 -58q-2 -14 -7 -27l-6 -15q-84 -184 -95 -209q-26 -72 -37 -97l-71 -143q-28 -70 -38 -93q-14 -35 -58 -136q-22 -59 -22 -62q13 -3 13 -11q0 -2 -1 -4q-23 -51 -28 -51h-2q-5 0 -9 31q-27 -23 -51 -23 q-25 0 -25 19q0 10 6 24v1q0 7 26 88q-1 11 -5 11q-99 -46 -122 -46h-21q-40 0 -68 70v11q0 27 -14 27z" />
<glyph unicode="V" d="M104 349q0 37 15 98q121 398 127 442q3 55 22 103q12 28 32 31h12q80 -31 80 -73q0 -10 -4 -20q-19 -56 -35 -112h3q26 47 38 75q19 53 27 71q11 25 57 78q14 13 23 13q14 0 75 -69q1 -15 1 -26q0 -24 -5 -36q-2 -5 -39 -44q-187 -273 -209 -327q-57 -75 -122 -193 q-4 -11 -4 -35l-4 -12q-35 -19 -42 -34l-4 -3h-2q0 34 -35 34q-7 14 -7 39z" />
<glyph unicode="W" horiz-adv-x="513" d="M68 249l5 12l7 9q-1 6 -1 14q0 26 11 66l10 20q1 4 1 9q0 10 -4 23l3 6l10 20q-8 0 -8 28q0 12 1 28q11 49 39 134l16 35q1 29 39 132q39 93 50 222q40 53 46 53q46 -47 58 -47q48 -8 48 -24q0 -2 -1 -5q-10 -30 -19 -53q-23 -53 -73 -169l-4 -6q-1 -14 -11 -38l-3 -6 q-29 -70 -69 -132l-2 -3v-2q0 -4 2 -9h5q23 19 158 242q56 81 72 120l6 15q3 6 20 55l5 12q24 41 38 41q67 -26 74 -26q3 0 37 2q8 0 8 -11q0 -16 -17 -56l-7 -14q-2 0 -22 -27q-35 -136 -35 -151v-1l2 -5q113 206 116 213q40 52 52 52h13q5 0 64 -46h24q1 0 1 -2 q0 -6 -5 -25q-13 -32 -117 -154q-50 -75 -85 -152q-5 -7 -70 -120q-37 -40 -62 -100l-2 -5q-2 -26 -9 -44l-3 -6q-58 -81 -75 -121v-6l-2 -3q-2 -5 -5 -5l-76 -63q10 63 13 68q13 25 16 33v3l-9 -3q-7 1 -7 7q0 4 3 10l30 83q20 47 22 117q15 56 39 245l-4 9 q-12 -6 -89 -134q-9 0 -55 -85q-43 -68 -69 -97q-6 -14 -33 -55q-12 -22 -26 -74q-2 -20 -9 -35q-7 -17 -70 -84q5 45 5 55v3z" />
<glyph unicode="X" horiz-adv-x="244" d="M17 292q0 1 1 3l6 14q18 25 24 38l8 24q34 55 123 190l11 21l4 10q22 53 29 173q5 16 5 54t-5 98l2 24l56 83q36 -35 70 -35q31 -26 45 -76q16 16 57 86q31 42 53 42q9 0 52 -62q13 0 15 -45q-89 -112 -157 -190q-52 -75 -60 -93q-6 -15 -8 -76q-17 -102 -23 -118l-9 -20 q-24 -58 -24 -93q0 -8 1 -14l-4 -11q-2 -5 -11 -10l-8 3h-3q-4 -10 -28 -31q-34 17 -34 36q0 4 2 9q-1 93 -9 97q-8 0 -102 -114q-31 -47 -39 -55q-40 24 -40 38z" />
<glyph unicode="Y" horiz-adv-x="245" d="M37 294q0 1 1 2l5 13l15 32q-1 0 -1 2q0 5 7 21q37 62 129 206l1 5q38 60 43 74q13 31 13 90q0 43 -7 102q-9 35 -31 53v8q0 14 2 39l2 3q3 9 34 39q25 33 31 37q10 0 64 -66q8 0 47 -45q5 -8 12 -8h3q8 0 99 150q33 43 62 43q68 -30 68 -51q0 -3 -1 -5q-2 -4 -29 -34 q-86 -107 -216 -297q-4 0 -18 -27q-6 -15 -6 -63q-2 -6 -2 -10q-20 0 -78 -87q-9 -15 -55 -50l-52 -58l-10 -24q-6 -15 -41 -45l-7 -13l-5 -13q-4 -9 -9 -24q-8 -15 -11 -15h-5q-24 13 -34 13q-8 -3 -16 -3q-4 3 -4 6z" />
<glyph unicode="Z" horiz-adv-x="280" d="M-9 346q0 11 6 25l4 11q39 73 212 276q117 133 132 170q-2 0 -2 1t1 2q-16 -10 -35 -14q-54 25 -100 25h-28q0 21 10 48l1 3q25 25 30 38q19 45 51 45l104 7q-1 -3 -1 -5t1 -2q27 4 32 4q8 -7 12 -7h35q16 0 39 55q32 42 35 42h6q25 0 63 -69q9 0 9 -20v-8 q-24 -27 -52 -69q-6 0 -30 -45q-44 -40 -192 -218q-129 -133 -142 -162l-9 -18q71 -17 88 -17q6 0 61 28q16 0 16 -28v-10l-7 -18q-65 -89 -219 -89q-27 0 -91 -7q-40 0 -40 26z" />
<glyph unicode="a" horiz-adv-x="394" d="M0 369q0 6 2 12l4 10q57 114 100 158q28 36 51 43q82 46 132 46l44 -10q7 0 34 10q19 -4 73 -38q42 0 45 -24q-24 -33 -25 -36l-1 -3l1 -9l-1 -3q-3 -8 -16 -26q6 -8 6 -23q0 -14 -6 -35q-13 -52 -39 -115l-7 -17q-25 -21 -54 -21q-9 0 -27 19q-26 0 -26 30v8q-2 6 -8 10 q-102 -46 -136 -46h-3q-24 0 -53 5q-20 -5 -27 -5q-63 31 -63 60zM248 413q0 -17 6 -17q4 -5 11 -5h5q9 0 13 9q6 15 6 38q0 31 -12 78l-17 -22q-12 -58 -12 -81z" />
<glyph unicode="b" horiz-adv-x="325" d="M53 368q0 2 1 3q8 59 12 68q9 10 10 13l71 189q3 0 86 188q39 71 47 90q5 12 35 94q34 41 57 41q7 6 71 9q14 0 16 -23q41 -14 41 -18l-4 -13l-3 -7q-8 -19 -53 -76q-122 -240 -146 -299l-1 -2q-8 -20 -8 -25q0 -2 1 -2q62 -13 74 -43q22 -34 90 -69q1 -32 3 -32 q-39 -70 -60 -89q-72 -65 -126 -65h-18q-64 0 -64 18q0 3 1 6l2 5q8 5 36 13q27 24 40 47q4 9 4 19q0 27 -28 64q-5 0 -11 5q-18 -39 -39 -70l-8 -36q-15 -9 -48 -13q-13 4 -15 4q-16 -4 -22 -4q-44 0 -44 10z" />
<glyph unicode="c" horiz-adv-x="286" d="M10 386q38 92 49 92q50 83 80 101q54 41 97 41q0 4 51 17q18 0 29 -51q9 0 9 -4v-1l-2 -8q-3 -8 -50 -19q-44 -21 -57 -63l-10 -13q-3 -9 -3 -19q0 -28 24 -58q32 -15 37 -53v-2q-5 -17 -19 -30h-11q-105 -23 -143 -23h-7q-60 14 -60 29v2q-10 13 -14 62z" />
<glyph unicode="d" horiz-adv-x="407" d="M-23 376q0 13 6 28q40 62 93 111q29 23 163 67q13 2 26 2q28 0 64 -16q2 0 10 9l3 7q15 50 17 56q10 20 12 20l5 17l3 7q63 138 114 260q16 37 20 65q41 49 70 49q31 0 59 -14q49 0 49 -37q0 -17 -10 -42q-8 -24 -20 -53l-3 -7q-83 -197 -265 -561l-3 -7h-1 q-3 -7 -17 -60q-8 -4 -12 -4h-3q-2 5 -14 9q-41 -9 -57 -9h-11q-53 4 -53 23q0 3 2 7l13 39q4 9 43 71l6 12q17 39 28 97h-11q-102 -27 -108 -42q-13 -5 -54 -73q-1 -3 -1 -5q0 -19 51 -44v-3q0 -2 1 -2q-13 -32 -77 -32q-17 -2 -44 -2q-94 9 -94 57z" />
<glyph unicode="e" horiz-adv-x="380" d="M29 351v1q8 87 24 125q48 90 57 90q68 61 102 61q118 29 160 29h17q16 0 50 -31q58 -28 64 -110q1 -14 1 -25q0 -23 -4 -32q-19 -33 -54 -33h-13q-10 0 -38 -26l-9 -1q-10 9 -21 9l-79 -15q-8 0 -17 4q-43 -11 -46 -18q-1 -1 -1 -3q0 -14 69 -19q4 -2 33 -2q11 0 47 2v-4 l-4 -7q-4 -10 -72 -32q-52 -11 -82 -11q-100 0 -127 19q-57 20 -57 29zM246 493q0 -4 2 -4q27 3 32 3q7 0 47 -1q30 1 33 7q6 11 8 16q10 23 10 38q0 18 -14 23h-12q-47 0 -96 -61q-7 -14 -9 -14q-1 -4 -1 -7z" />
<glyph unicode="f" horiz-adv-x="343" d="M-32 -131q0 10 5 23q4 9 4 32q0 12 -1 28l11 29l42 101q7 16 23 69l5 12q3 9 20 41q-1 27 -1 29l37 86q19 46 36 137q21 59 41 122q7 24 7 33q0 6 -3 6q-21 -10 -36 -10h-6q-42 12 -62 39q-1 5 -1 11q0 12 6 27q6 16 59 31h85l6 7l6 15q19 44 43 105q58 116 71 116 q29 55 42 55q60 50 127 50q1 3 15 3h5q61 0 133 -72v-1q0 -4 5 -21q-5 -12 -92 -19q-58 -27 -102 -132q-34 -62 -71 -96l-7 -12q-3 -7 -3 -13q0 -22 28 -47q53 0 64 -34q-6 -2 -7 -5q-8 0 -23 3q-59 -3 -98 -3q-20 0 -94 -151q-4 0 -12 -17l-2 -4q-5 -12 -5 -44 q-44 -54 -74 -124q-24 -42 -29 -48l-3 2h-4l-16 -14q-1 -17 -4 -24q-6 -5 -8 -5q-2 -27 -5 -34l-4 -9q-4 -8 -12 -8q-17 -39 -49 -108q-2 -4 -15 -48q-33 -70 -53 -117q-9 -17 -10 -19q-14 10 -14 27z" />
<glyph unicode="g" horiz-adv-x="162" d="M-265 -229q2 16 6 29q3 8 36 41q18 46 61 96q-33 -76 -33 -103q0 -6 1 -9v-10q0 -35 19 -35q32 0 80 50q44 36 117 178l83 173q14 39 23 79q-81 -9 -86 -9q-32 12 -87 54q-12 24 -12 43q0 9 3 18q10 20 16 37l12 32q20 58 87 142q3 0 37 32q64 33 97 33q20 -2 32 -9 q10 4 19 4q25 0 107 -73l-10 -46l-1 -2q-7 -22 -48 -85q-31 -56 -55 -126q-29 -53 -47 -96l-156 -333q-5 -11 -35 -62q-5 -12 -24 -25q-26 -44 -96 -76q-40 -11 -76 -11q-65 0 -70 69zM118 354q7 -22 19 -22q17 21 31 46q5 12 28 67q3 6 29 46q12 33 12 49q0 14 -10 14 q-5 0 -13 2q-42 0 -62 -39q-10 -18 -15 -98q-18 -42 -19 -65z" />
<glyph unicode="h" d="M-8 285l20 42q1 12 10 33l4 10q65 125 116 247q1 0 7 13q18 69 21 78q22 31 24 36l1 2q21 58 23 62l11 26q23 55 61 149q19 39 37 39h8q23 0 50 -39q18 -11 18 -15l-25 -60q-3 -5 -56 -77q-19 -32 -56 -103q2 -11 47 -23l33 8q7 0 60 -41q-2 -4 -2 -7q0 -13 26 -19 q2 -10 2 -19q0 -12 -4 -22q-45 -93 -57 -93q-6 -7 -31 -57q-5 -6 -18 -28q-1 -8 -7 -28q-24 -52 -43 -88l-6 -13q-11 -40 -13 -44l-2 -5q-12 -25 -16 -25h-39v17q0 13 -1 13q-6 44 -11 47q20 55 44 172l37 129l-2 8h-7q-13 0 -47 -39q-20 -8 -26 -23q-24 -44 -73 -162 l-11 -26q-27 -64 -57 -64q-24 -18 -36 -18q-7 0 -14 7z" />
<glyph unicode="i" horiz-adv-x="239" d="M73 209q0 17 7 45q42 134 127 348v1q0 8 32 90q30 31 41 31h12q5 0 47 -36q23 -24 35 -24q9 0 9 -10q0 -8 -7 -24q-46 -88 -52 -88q-25 -14 -52 -77q-34 -36 -50 -75q-16 -8 -75 -144q-4 0 -14 -21q-2 -6 -6 -22q-23 -21 -36 -21q-18 0 -18 27zM352 982q40 63 73 100 q31 27 59 63q80 33 90 33q-1 -1 -1 -4q0 -9 9 -34q-8 -29 -57 -197q-20 -12 -46 -17q-10 3 -17 3h-8l-55 -15h-2q-3 0 -18 29q-22 22 -27 39z" />
<glyph unicode="j" horiz-adv-x="241" d="M-147 -100q0 17 11 43q4 34 23 95q25 114 25 147q0 13 -4 13q-2 2 -4 2q-20 -2 -23 -2q-14 5 -14 16q0 4 2 9q6 15 46 36h3q4 0 5 -2q11 2 17 2h9q35 0 71 -97q2 -9 6 -9q5 6 7 11l2 5q4 22 9 32l4 11q10 23 41 67l10 25q18 32 60 127q30 51 35 63l10 25q15 34 85 166 q49 99 86 168q22 53 36 53q6 3 15 3q8 0 41 -34q20 -6 20 -12v-2l-4 -11q-66 -90 -75 -110l-17 -36l-6 -18q-22 -50 -169.5 -373t-153.5 -336l-1 -2q-10 -24 -23 -40q-6 -15 -7 -19h9l3 1q-1 -26 -10 -48l-3 -7q-24 -25 -53 -25l-22 10q-17 -1 -21 -1q-40 3 -56 16 q-10 16 -22 23q-3 6 -3 15zM439 1019q45 86 80 86q44 -13 44 -25v-2q-6 -65 -10 -75q-12 -22 -18 -22q-25 11 -33 11h-5q-7 0 -30 -7q-22 0 -28 34z" />
<glyph unicode="k" d="M-1 158q0 4 2 9q25 71 25 86q0 4 4 12l20 48q6 15 22 34q-1 4 -1 8q0 20 12 47q4 13 8 21q44 96 57 128l21 57q13 29 33 65q-2 0 -3 29l5 12q6 14 35 41l7 16q16 39 42 104l24 43v1q0 9 53 155q5 26 10 38q14 33 60 46h8q53 -30 78 -67q3 -2 3 -8q0 -11 -11 -36l-2 -4 q-58 -87 -85 -137q-9 -22 -30 -58q-3 -6 -3 -8q0 -1 1 -1q56 38 66 38h7l25 -14l4 2q14 0 14 -48v-7l-1 -3q-24 -26 -94 -67q-1 -2 -3 -2q-21 -75 -27 -89q-42 -91 -50 -91q-6 -9 -11 -22q-30 -86 -30 -114q0 -5 1 -8q2 -6 2 -11q0 -9 -4 -18l-7 -17q-23 -43 -25 -43 q-31 9 -42 53q1 25 1 57v34q2 5 2 9q0 9 -10 13q-39 -75 -63 -132l-5 -15q-22 -50 -30 -69q-2 -5 -4 -15q-8 -7 -17 -7l-1 -2v-4q0 -7 1 -23l-1 -2q-3 -7 -21 -15q-33 -54 -39 -62q-1 -2 -3 -2h-1q-29 0 -29 15z" />
<glyph unicode="l" horiz-adv-x="140" d="M-12 315q0 30 11 71q11 52 36 111q36 60 58 113q9 21 55 120q37 102 96 254l1 2q23 54 64 77h4q43 -9 43 -31q0 -4 -2 -10q0 -4 -15 -40l-6 -15q-17 -40 -98 -206l-45 -99q-23 -56 -29 -96q-9 -21 -11 -69q-12 -29 -13 -139v-6q0 -30 10 -30q3 2 5 2q-2 -17 -7 -31 q-6 -14 -26 -41q-6 5 -11 5l-19 -15q-1 -2 -27 -4q-74 0 -74 77zM140 253q0 2 1 4q2 5 4 5h1q1 -1 1 -3v-2l-6 -5q-1 0 -1 1z" />
<glyph unicode="m" horiz-adv-x="445" d="M-12 315q0 1 1 2l1 8l2 3q13 16 49 90q75 121 88 152l12 30q15 35 56 49q6 14 85 31h7q5 0 30 -14q55 -22 55 -33v-1q-29 -92 -29 -97q22 0 61 43q52 38 65 67q39 54 66 54q12 2 13 2q7 0 33 -18q14 0 22 -22q-1 -7 -4 -14q-7 -17 -45 -84q-16 -43 -21 -54 q-24 -58 -49 -83q-8 -14 -13 -27l-21 -49q-3 -9 -10 -21q0 -14 -7 -42q-9 0 -42 29q-5 0 -11 28q-3 0 -3 7q0 8 4 25q-2 4 -2 13q0 24 13 82l-4 4h-2q-17 -18 -55 -65q-17 -10 -41 -41q-43 -2 -68 -2h-29q-9 0 -15 13q14 17 15 21l1 1q18 62 42 128v1q0 5 3 28h-2 q-10 -4 -26 -24q-14 -38 -25 -64q-89 -170 -102 -170q-11 0 -12 -1l-5 1q-81 0 -81 14z" />
<glyph unicode="n" horiz-adv-x="446" d="M23 279q0 10 4 23l6 16q28 82 78 201l9 28q26 77 27 120l7 18q16 33 45 33h34q51 0 71 -14q-11 -39 -12 -43q-11 -29 -75 -162q-2 0 -7 -10q0 -3 6 -6q8 0 55 50q88 92 96 114q24 38 47 38q16 11 39 11q86 -17 86 -39q0 -2 -1 -4q1 -6 1 -13q0 -17 -4 -41l-74 -159v-4 q-15 -40 -28 -98q-10 -22 -16 -38q-5 -14 -8 -58l-2 -8q-10 -22 -15 -22q-46 42 -46 53v1q2 7 2 16q0 22 -11 56q11 62 52 209l-5 14q-17 0 -52 -56q-41 -47 -156 -217q-25 -26 -29 -26h-54q-11 0 -44 -6q-26 0 -26 23z" />
<glyph unicode="o" horiz-adv-x="256" d="M-20 396q0 19 5 37l12 38q16 51 29 61q107 133 175 133q59 -10 121 -29q3 0 3 -9q0 -20 -15 -86q-60 -167 -68 -167q-16 -21 -34 -59q-38 -43 -97 -43q-29 3 -29 14v3q22 7 24 15h-13q-8 0 -15 -2q-71 0 -85 46q-12 7 -12 25v3q-1 10 -1 20zM119 429q0 -49 12 -85l6 -19 h2q29 48 47 106l10 29q10 48 10 67q0 12 -4 12q-16 14 -36 16q-25 -23 -38 -63l-7 -25q-2 -20 -2 -38z" />
<glyph unicode="p" horiz-adv-x="257" d="M-187 -287q30 160 44 211q-1 6 -1 13q0 38 20 86q23 50 31 69q6 13 27 67q18 32 28 56q13 43 27 76l3 8q4 8 11 21q7 18 7 51q0 13 -1 28q0 8 3 15l1 2q21 51 32 51q14 6 18 16q26 62 59 171l5 12q16 37 50 53q1 0 5 2q41 0 52 -19q3 0 5 -3q39 15 51 15h3q24 0 110 -43 q30 -20 30 -54v-2q2 0 2 -2q0 -1 -2 -5q-78 -186 -175 -233q-65 -31 -129 -48q-16 0 -29 -31l-9 -17zM183 467h1q36 38 55 84l9 21v3q0 7 -7 7h-8l-9 -17z" />
<glyph unicode="q" horiz-adv-x="304" d="M-15 285q0 22 8 54q5 21 25 82q39 75 108 151q57 52 109 70q26 19 51 19q47 0 72 -29q54 -17 54 -31q0 -2 -1 -3l-1 -2q-4 -8 -31 -17l-1 -2q63 -36 63 -47v-1l-1 -10q-6 -13 -30 -62q-46 -127 -99 -259q-33 -80 -46 -80t-19 -14q-4 -11 -132 -266l-115 -184 q167 511 174 560l3 8q-3 0 -19 2q-54 -10 -72 -10q-42 0 -91 32q-9 14 -9 39zM166 397q19 -36 26 -36h2q24 0 66 55q13 23 18 34q18 43 18 63q0 16 -12 16q-8 0 -23 2q-34 0 -66 -65z" />
<glyph unicode="r" horiz-adv-x="243" d="M5 253l6 11l14 39q9 23 34 129l4 11q1 2 4 6q11 61 30 113l14 32q27 71 32 118l1 4q15 38 49 38q9 0 18 3q-2 -22 -2 -40q0 -60 25 -60q16 0 41 23q5 1 10 1q28 0 39 -30q46 -67 46 -89q0 -4 -1 -6q-1 -21 -2 -23q-11 -9 -27 -9q-40 0 -56 27l-9 5q-9 0 -44 -32 q-3 0 -25 -47l-112 -215q-21 -13 -54 -13h-28q-4 0 -7 4z" />
<glyph unicode="s" horiz-adv-x="335" d="M20 447q0 1 1 3q-1 0 -1 3t3 12l4 11q5 11 14 26q15 56 22 72l12 28q55 37 101 37q52 17 152 43q15 6 72 11q10 -7 61 -13q25 -15 30 -37q-5 -11 -60 -17q-171 -26 -186 -63q-3 -18 -3 -30q0 -29 15 -29q7 -5 7 -17q18 -32 65 -50q6 -31 16 -61q0 -7 -5 -24l-16 -33 q0 -2 -7 -21q-35 -41 -92 -41q-1 0 -1 1v1l-9 -2h-20q-9 0 -103 19q-37 0 -48 17q-6 4 -6 12q0 6 4 14l1 3q62 35 128 39l26 11l2 4q1 4 1 7q0 15 -37 15q-11 0 -80 24q-63 10 -63 25z" />
<glyph unicode="t" horiz-adv-x="162" d="M-225 854q0 8 9 8q3 0 8 -1l340 -37q14 -8 26 -8q26 0 41 42q48 110 58 110q24 53 34 53q49 48 103 48q1 3 12 3h4q7 2 13 2q22 0 22 -27q0 -54 -83 -210l-28 -59l139 -25q115 -7 183 -41q-64 -1 -65 -3q-6 0 -18 2q-234 8 -265 8q-16 0 -97 -245q-3 -1 -10 -16l-2 -5 q-4 -11 -5 -41q-35 -53 -60 -120q-20 -40 -24 -46l-2 2h-4l-13 -14q0 -16 -3 -23q-5 -4 -7 -4q-1 -26 -4 -32l-3 -10q-4 -7 -10 -7q-14 -38 -40 -103q-2 -5 -13 -46q-27 -68 -44 -113q-7 -16 -8 -18q-12 9 -12 25q0 10 5 23q4 9 4 34q0 10 -1 23l9 28l35 97q6 16 19 67l4 11 q3 8 17 39v28l30 83q16 43 31 131q18 56 54 217q6 24 6 32q0 5 -2 5q-263 2 -275 2h-5q-34 12 -50 37q-53 73 -53 94z" />
<glyph unicode="u" horiz-adv-x="308" d="M11 366q0 9 4 19l3 8q34 59 46 86l12 28q15 22 17 27l19 45q7 17 33 89q29 25 38 25h8q12 -3 59 -31q25 -3 25 -10v-2l-4 -14l-18 -35q-3 -11 -6 -18q-8 -12 -34 -35q-2 -8 -4 -14q-22 -29 -31 -39q-22 -71 -22 -90q0 -8 3 -8q0 -6 30 -40h1q8 0 62 71q50 108 70 122 q4 3 5 8q20 45 23 88l6 14q11 25 47 25h8l70 -33q1 -1 1 -3q0 -18 -36 -101q-6 -16 -17 -37q-13 -43 -22 -65l-10 -24q-46 -108 -63 -108q-17 -6 -20 -14q-12 -36 -27 -70l-4 -2h-3q-11 0 -11 38v7q-11 12 -21 12h-32q-30 0 -73 -14h-2q-7 0 -68 27q-43 0 -50 34 q-12 17 -12 34z" />
<glyph unicode="v" horiz-adv-x="315" d="M71 321q0 21 12 64q36 176 36 244q0 8 -1 15v5q10 25 48 33h6q5 0 36 -14q58 -12 58 -21v-1l-16 -53q-1 -13 -2 -16q-20 -36 -25 -48q-3 -7 -3 -14q0 -4 1 -9q14 0 62 60q99 100 105 105q13 8 35 8q20 0 48 -31q10 -11 18 -11q2 0 17 2q6 -5 6 -12q0 -4 -2 -9 q-10 -14 -50 -36q-17 -13 -36 -35q-24 -16 -73 -45q-5 -11 -41 -36q-32 -37 -42 -46q-49 -38 -55 -51q-1 -3 -2 -51h-1q-42 0 -57 -35q-21 -32 -36 -32q-17 0 -33 47q-13 0 -13 23z" />
<glyph unicode="w" horiz-adv-x="618" d="M115 283q0 6 3 14q-3 0 -3 11q0 26 21 120q7 33 9 71q10 23 10 40q0 11 -5 20q3 6 3 13q0 22 -23 50q-1 9 -1 17q0 20 7 37q18 25 49 25q74 -28 74 -40v-2q47 -22 47 -33v-2l-2 -7l-6 -10q-15 -69 -22 -87q-8 -15 -9 -17q16 10 109 142q28 25 41 25h22q56 0 101 -42 q13 -5 13 -14q0 -3 -2 -7q-11 -21 -16 -33l-2 -4q-16 -49 -16 -64q0 -7 3 -7h1q116 148 134 148q9 4 22 6q77 -22 77 -37q0 -2 -1 -3l-1 -2q-2 -7 -37 -31h-1q-6 2 -11 2l-3 -4q0 -7 -2 -13l-4 -8q-1 -5 -36 -27q-22 -28 -58 -56q-5 -12 -26 -31q-3 -9 -34 -34 q-47 -49 -58 -77q-3 -6 -16 -46q-17 -12 -28 -12q-26 6 -33 6q-2 0 -23 -2q-8 6 -8 15l2 6q2 4 12 21q4 22 4 29q0 4 -1 4q-28 13 -28 27q0 3 1 6q4 40 4 63q0 12 -1 19h-1q-29 -30 -94 -125q-3 -8 -12 -40q-31 -19 -82 -27q-2 -6 -27 -8h-13q-23 0 -23 15z" />
<glyph unicode="x" horiz-adv-x="244" d="M19 282v1l3 7q13 13 16 20l4 12q22 29 84 98l6 11l2 5q5 11 5 27q0 25 -11 62v3q0 19 -31 76l-2 12l38 43q44 -18 78 -18q36 -13 60 -39q13 8 40 44q22 22 44 22q9 0 65 -32q12 0 23 -23q-65 -58 -117 -98q-38 -39 -41 -49q-1 -2 -1 -5q0 -11 8 -34q2 -26 2 -41t-2 -19 l-4 -11q-8 -19 -8 -33q0 -13 7 -22l-2 -6q-1 -2 -9 -5l-9 2h-3q-2 -5 -21 -16q-42 10 -42 21v2q-20 48 -28 50q-8 0 -79 -59q-21 -24 -28 -28q-47 13 -47 20z" />
<glyph unicode="y" horiz-adv-x="326" d="M-247 -311q0 13 5 25q18 14 57 14q-1 -9 -1 -16q0 -43 30 -43q49 0 111 94l4 12q60 131 69 152l22 51q11 26 24 44q0 6 2 12l17 41q15 34 30 64l20 59q21 41 31 66q10 24 10 38q0 10 -5 15q-14 6 -37 8q-11 -2 -18 -2h-5q-78 0 -78 49v1q-2 0 -2 9q0 19 12 82 q13 31 32 143l4 10q17 24 49 24q8 0 68 -32q53 -19 53 -30v-1l-2 -3q-43 -39 -68 -98l-9 -22q20 -28 28 -28q12 0 46 33q25 47 49 105v12q29 7 62 37q5 0 55 -41q32 -13 32 -18v-1q-1 -1 -2 -22l-2 -5q-10 -13 -30 -55q-3 0 -7 -8v-5q0 -4 -1 -7q-31 -22 -54 -76 q-49 -79 -106 -215q-23 -59 -25 -64q-37 -61 -52 -96q-4 -9 -15 -39q-15 -26 -25 -49q-5 -12 -13 -36q-8 -15 -14 -29q-3 -6 -11 -41q-51 -86 -65 -101q-10 -7 -32 -39q-57 -53 -103 -53q-15 -1 -31 -1q-27 0 -67 25q-1 8 -10 8l-15 -1q-17 22 -17 44z" />
<glyph unicode="z" horiz-adv-x="272" d="M-14 287q0 3 1 6l2 4q61 45 136 140q85 94 99 127q1 4 1 7q0 9 -14 9q-21 10 -58 10q-34 -4 -43 -4q-8 7 -8 15q0 4 2 8l3 8l6 6q0 1 -3 10l1 2q32 23 116 23q66 16 74 16q30 0 51 -22v-1q0 -16 32 -50q4 -9 4 -16q0 -4 -2 -7l-4 -10q-11 -26 -121 -131q-12 -17 -59 -72 l-4 -8l7 -6l12 2q8 0 107 -27q32 0 32 -18q0 -6 -3 -13l5 -31q-3 -8 -37 -14q-8 0 -48 2q-12 0 -146 -27q-24 15 -103 31q-38 14 -38 31z" />
<glyph unicode="&#xa3;" d="M-312 123q0 48 35 104l14 24q30 47 52 89q28 44 202 124q27 15 28 17q40 65 40 83q0 6 -5 6l-138 22q-28 11 -28 18q0 2 1 3l3 5q10 17 31 17q46 7 69 7q45 -10 66 -10h24q4 0 18 20q26 49 59 124l26 36q58 102 63 123q130 189 141 189q56 56 118 82q44 34 75 34 q20 9 43 9q57 0 122 -48q25 0 25 -55q0 -30 -7 -74q-26 -132 -76 -212q0 -3 -13 -24l-5 -9q-4 -6 -4 -10q-5 -7 -43 -55q-1 -5 -11 -22q-9 -12 -11 -12q-22 20 -56 27q-33 27 -33 43q0 4 2 7q21 73 68 149q54 109 54 127q0 3 -2 3q-3 25 -18 26q-13 0 -45 -53 q-43 -70 -75 -122q-77 -123 -153 -245l-29 -48q7 -7 12 -7l62 9q59 0 59 -40q0 -12 -5 -27q0 -3 -3 -14l-2 -3q-15 -14 -24 -14h-6l-20 24q1 2 1 3q0 7 -22 7h-77q-16 0 -29 -22q-50 -85 -65 -110l-12 -20q-10 -15 -10 -40q0 -20 6 -46q-18 -124 -67 -202q-31 -50 -47 -50 h-4q-4 0 -4 8q0 21 28 95q12 43 12 65q0 17 -7 22q-66 -91 -118 -142q-63 -52 -98 -65q-64 -21 -85 -21q-89 21 -98 38q-4 16 -4 33zM-216 144q0 -13 11 -13h26q14 0 42 43l21 34q17 26 24 31q35 63 35 77q0 4 -3 4q-5 5 -9 5q-3 -4 -81 -65q-30 -31 -45 -55 q-21 -43 -21 -61z" />
<glyph unicode="&#xa5;" d="M-90 371q25 60 49 60l26 -5q18 5 30 5q10 -8 13 -8q86 2 87 5q4 4 6 10l2 5l21 74l3 7l-7 3h-12q-78 -10 -91 -10q-57 7 -57 33v3q45 67 91 67q44 5 72 5q3 29 4 122q4 49 4 91q0 51 -6 92q-15 32 -15 60q0 23 9 43q21 38 40 38h57q10 0 31 8q21 0 21 -48q0 -14 -2 -32 v-12q0 -42 -16 -134q-4 -50 -4 -68q0 -11 1 -11h3q19 0 26 17q24 49 186 232q39 72 78 72q2 0 14 3q43 0 43 -32q0 -7 -2 -16q-17 -19 -64 -67q-111 -147 -145 -185v-9q0 -21 -7 -39q-24 -42 -34 -65l-3 -7q-16 -37 -16 -49q0 -6 4 -6q12 0 12 -3q24 3 40 3h36q51 0 55 -34 q-2 -4 -48 -24q-31 -5 -72 -22q-67 -3 -76 -24q-23 -30 -35 -57q-6 -13 -6 -21t7 -10q49 16 60 16q1 3 24 3h9l55 -10h21q16 0 16 -12q0 -6 -4 -14l-5 -10q-10 -24 -124 -45q-11 0 -77 -41q-37 -9 -40 -17q-25 -38 -54 -62q-70 -36 -80 -36h-2q-1 0 -1 2q0 10 18 65v2 q0 11 21 70q-30 0 -101 -3q-82 0 -83 20v1q0 4 -6 11z" />
<glyph unicode="&#x2000;" horiz-adv-x="682" />
<glyph unicode="&#x2001;" horiz-adv-x="1365" />
<glyph unicode="&#x2002;" horiz-adv-x="682" />
<glyph unicode="&#x2003;" horiz-adv-x="1365" />
<glyph unicode="&#x2004;" horiz-adv-x="455" />
<glyph unicode="&#x2005;" horiz-adv-x="341" />
<glyph unicode="&#x2006;" horiz-adv-x="227" />
<glyph unicode="&#x2007;" horiz-adv-x="227" />
<glyph unicode="&#x2008;" horiz-adv-x="170" />
<glyph unicode="&#x2009;" horiz-adv-x="273" />
<glyph unicode="&#x200a;" horiz-adv-x="75" />
<glyph unicode="&#x202f;" horiz-adv-x="273" />
<glyph unicode="&#x205f;" horiz-adv-x="341" />
<glyph unicode="&#x20ac;" horiz-adv-x="432" d="M69 515q0 2 1 5q1 5 4 12l5 12q12 29 46 29q14 3 21 3q2 0 38 -3q11 0 24 27q1 3 12 33l-99 -5q-15 0 -19 17q30 58 50 58h32q10 0 41 9h17q58 90 90 147q54 59 91 105q69 56 135 70q3 2 11 2q87 0 87 -14v-2q-1 -14 -4 -22h1q11 26 16 26q10 0 61 -31q3 -10 3 -18 t-3 -15q-11 -10 -17 -10q-20 7 -26 7h-36q-7 0 -19 -2q-2 2 -16 5q-50 -21 -102 -84q-71 -92 -83 -123q-9 -19 -14 -41h12q47 -7 65 -7h19q36 0 36 -29q0 -6 -2 -14q-7 0 -92 -26q-75 -8 -86 -34q-6 -10 -9 -17q-2 -5 -2 -8q0 -11 18 -11q34 7 40 7h6q9 0 9 -4v-1l17 3h4 q75 -13 75 -32q0 -2 -1 -4q0 -1 4 -15q-8 -10 -17 -16h-5q-6 11 -15 14q-122 -14 -163 -38q-5 -29 -12 -44l-7 -16q25 -22 57 -34q-3 -13 -3 -22q0 -16 12 -16q8 -3 12 -3q7 0 57 7q3 0 9 -4l-3 -5l-10 -24q-3 -4 -62 -29q-20 -14 -38 -14h-10q-26 0 -89 -12h-7 q-80 0 -86 84q-1 2 -1 7q0 23 19 105q-2 16 -2 25q0 5 1 7q-98 0 -98 23z" />
<glyph unicode="&#x25fc;" horiz-adv-x="670" d="M0 0v670h670v-670h-670z" />
</font>
</defs>
</svg>
