<?xml version="1.0" standalone="no"?>
<!DOCTYPE svg PUBLIC "-//W3C//DTD SVG 1.1//EN" "http://www.w3.org/Graphics/SVG/1.1/DTD/svg11.dtd" >
<svg xmlns="http://www.w3.org/2000/svg" xmlns:xlink="http://www.w3.org/1999/xlink" version="1.1">
<metadata></metadata>
<defs>
<font id="recognitionregular" horiz-adv-x="1139" >
<font-face units-per-em="2048" ascent="1638" descent="-410" />
<missing-glyph horiz-adv-x="569" />
<glyph horiz-adv-x="0" />
<glyph unicode="&#xd;" horiz-adv-x="569" />
<glyph unicode=" "  horiz-adv-x="569" />
<glyph unicode="&#x09;" horiz-adv-x="569" />
<glyph unicode="&#xa0;" horiz-adv-x="569" />
<glyph unicode="!" horiz-adv-x="569" />
<glyph unicode="&#x22;" horiz-adv-x="727" />
<glyph unicode="#" />
<glyph unicode="$" />
<glyph unicode="%" horiz-adv-x="1821" />
<glyph unicode="&#x26;" horiz-adv-x="1366" />
<glyph unicode="'" horiz-adv-x="391" />
<glyph unicode="(" horiz-adv-x="682" />
<glyph unicode=")" horiz-adv-x="682" />
<glyph unicode="*" horiz-adv-x="797" />
<glyph unicode="+" horiz-adv-x="1196" />
<glyph unicode="," horiz-adv-x="569" />
<glyph unicode="-" horiz-adv-x="682" />
<glyph unicode="." horiz-adv-x="569" />
<glyph unicode="/" horiz-adv-x="569" />
<glyph unicode="0" />
<glyph unicode="1" />
<glyph unicode="2" />
<glyph unicode="3" />
<glyph unicode="4" />
<glyph unicode="5" />
<glyph unicode="6" />
<glyph unicode="7" />
<glyph unicode="8" />
<glyph unicode="9" />
<glyph unicode=":" horiz-adv-x="569" />
<glyph unicode=";" horiz-adv-x="569" />
<glyph unicode="&#x3c;" horiz-adv-x="1196" />
<glyph unicode="=" horiz-adv-x="1196" />
<glyph unicode="&#x3e;" horiz-adv-x="1196" />
<glyph unicode="?" />
<glyph unicode="@" horiz-adv-x="2079" />
<glyph unicode="A" horiz-adv-x="745" d="M50 145v598q0 129 82 227t204 124q123 -26 205 -124t82 -227v-77v-169q0 -84 72 -125v-227q-122 25 -204.5 123.5t-82.5 228.5v169v77q0 82 -72 124q-72 -42 -72 -124v-598h-214z" />
<glyph unicode="B" horiz-adv-x="1055" d="M50 504v597h597q147 0 252.5 -105.5t105.5 -252.5q0 -64 -20 -120q20 -57 20 -119q0 -147 -105.5 -253t-252.5 -106h-239q-147 0 -252.5 105.5t-105.5 253.5zM264 504q0 -60 42.5 -102t101.5 -42h239q110 0 139 105l-257 134h118q60 0 102 42t42 102q0 58 -42 100.5 t-102 42.5h-383v-382z" />
<glyph unicode="C" horiz-adv-x="1056" d="M50 504v239q0 147 106 252.5t253 105.5h239q148 0 253 -105.5t105 -252.5h-214q0 58 -42 100.5t-102 42.5h-239q-59 0 -101.5 -42.5t-42.5 -100.5v-239q0 -60 42.5 -102t101.5 -42h239q60 0 102 42t42 102h214q0 -146 -102 -250.5t-247 -107.5q-3 -1 -9 -1h-239 q-6 0 -9 1h-1q-144 3 -246.5 107.5t-102.5 250.5z" />
<glyph unicode="D" horiz-adv-x="1056" d="M50 504v597h597q148 0 253.5 -105.5t105.5 -252.5v-239q0 -147 -106 -253t-253 -106h-239q-147 0 -252.5 105.5t-105.5 253.5zM264 504q0 -60 43 -102t101 -42h239q60 0 102 42t42 102v239q0 58 -42 100.5t-102 42.5h-383v-382z" />
<glyph unicode="E" horiz-adv-x="1055" d="M50 504q0 62 20 119q-20 56 -20 120q0 147 105.5 252.5t252.5 105.5h597v-215h-214h-68h-315q-59 0 -101.5 -42.5t-42.5 -100.5q0 -60 43 -102t101 -42h118l-257 -134q32 -105 139 -105h239q60 0 102 42t42 102h214q0 -148 -105 -253.5t-253 -105.5h-239 q-147 0 -252.5 106t-105.5 253z" />
<glyph unicode="F" horiz-adv-x="1056" d="M50 145v320q0 73 29 139q-29 64 -29 139q0 147 106 252.5t253 105.5h597v-215h-214h-69h-314q-59 0 -101.5 -42.5t-42.5 -100.5q0 -60 42.5 -102t101.5 -42h117l-261 -137v-317h-215z" />
<glyph unicode="G" horiz-adv-x="1056" d="M50 145v598q0 147 105.5 252.5t253.5 105.5h238q74 0 139 -29q67 -28 114 -77q25 -25 44 -53l-195 -98q-20 20 -46 31q-23 11 -56 11h-59h-60h-119q-59 0 -102 -42.5t-43 -100.5v-383h383q60 0 102.5 42t42.5 102q0 58 -42.5 101t-102.5 43h-117l306 160 q170 -107 170 -304q0 -147 -105.5 -253t-253.5 -106h-597z" />
<glyph unicode="H" horiz-adv-x="1056" d="M50 463v7.5v8.5v6v7v6v6v239q0 147 105 252.5t253 105.5v-215q-55 0 -96 -37t-47 -90l261 -136h-118q-56 0 -97.5 -39t-45.5 -93q4 -55 45 -93t98 -38v-215q-138 0 -239.5 92t-116.5 226h-2zM528 623h117q58 0 100.5 42t43.5 101q-20 121 -142 121v214q137 0 239 -92.5 t117 -225.5v-1q2 -20 2 -30q0 -3 0.5 -5t0.5 -4v-239q0 -3 -0.5 -5t-0.5 -4q-4 -145 -108.5 -247.5t-249.5 -102.5v215q127 0 143 126z" />
<glyph unicode="I" horiz-adv-x="459" d="M50 145v598q0 147 105.5 252.5t253.5 105.5v-215q-60 0 -102 -42.5t-42 -100.5v-598h-215z" />
<glyph unicode="J" horiz-adv-x="458" d="M50 145v215q59 0 101.5 42t42.5 102v597h214v-597q0 -148 -105.5 -253.5t-252.5 -105.5z" />
<glyph unicode="K" horiz-adv-x="934" d="M50 145v101v114q59 0 101.5 42t42.5 102v298v299h214v-453q67 116 130.5 226t131.5 227h214l-169 -293q169 -107 169 -304q0 -147 -105.5 -253t-252.5 -106v215q59 0 101.5 42t42.5 102q0 58 -42.5 101t-101.5 43h-118v-144q0 -148 -105.5 -253.5t-252.5 -105.5z" />
<glyph unicode="L" horiz-adv-x="459" d="M50 504v597h215v-597q0 -60 42 -102t102 -42v-215q-148 0 -253.5 105.5t-105.5 253.5z" />
<glyph unicode="M" horiz-adv-x="1056" d="M50 145v598q0 147 105.5 252.5t252.5 105.5q63 0 120 -21q55 21 119 21q147 0 253 -105.5t106 -252.5v-598h-215v598q0 108 -105 138l-134 -256v118q0 58 -42.5 100.5t-101.5 42.5q-60 0 -102 -42.5t-42 -100.5v-299.5v-298.5h-214z" />
<glyph unicode="N" horiz-adv-x="1032" d="M50 145v598q0 129 82 227t205 124q122 -26 204 -124t82 -227v-170v-76q0 -84 72 -125q72 41 72 124v598h215v-598q0 -129 -82.5 -227.5t-204.5 -123.5q-123 25 -204.5 123.5t-81.5 228.5v76v170q0 82 -72 124q-72 -42 -72 -124v-598h-215z" />
<glyph unicode="O" horiz-adv-x="1116" d="M50 504v239q0 147 105.5 252.5t253.5 105.5h298q148 0 253.5 -105.5t105.5 -252.5v-239q0 -146 -102.5 -250.5t-246.5 -107.5l-308 -1q-148 0 -253.5 105t-105.5 254zM265 504q0 -60 42 -102t102 -42h298q59 0 102 42t43 102v239q0 58 -43 100.5t-102 42.5h-298 q-60 0 -102 -42.5t-42 -100.5v-239z" />
<glyph unicode="P" horiz-adv-x="1055" d="M50 504v597h597q102 0 189 -55q164 -102 169 -294v-1v-5v-3v-5v-4v-2q-5 -192 -169 -293q-87 -55 -189 -55h-104l-222 215h221h105q57 0 99.5 41t44.5 99v1v3v1v2q-2 57 -44.5 98.5t-99.5 41.5h-118h-265v-382q0 -60 42 -102t102 -42v-114v-101q-148 0 -253 105.5 t-105 253.5z" />
<glyph unicode="Q" horiz-adv-x="1116" d="M50 504v239q0 147 105.5 252.5t253.5 105.5h298q148 0 253.5 -105.5t105.5 -252.5v-239q0 -146 -102.5 -250.5t-246.5 -107.5l-308 -1q-148 0 -253.5 105t-105.5 254zM265 504q0 -60 42 -102t102 -42h72q-30 69 -30 144v119h214v-119q0 -99 93 -135q94 36 94 135v239 q0 58 -43 100.5t-102 42.5h-298q-60 0 -102 -42.5t-42 -100.5v-239z" />
<glyph unicode="R" horiz-adv-x="1056" d="M50 504v597h597q147 0 253 -105.5t106 -252.5q0 -199 -170 -304l170 -294h-215q-67 117 -131 227t-130 227h117q59 0 101.5 42t42.5 102q0 58 -42.5 100.5t-101.5 42.5h-383v-382q0 -60 42 -102t102 -42v-114v-101q-148 0 -253 105.5t-105 253.5z" />
<glyph unicode="S" horiz-adv-x="1048" d="M50 145v215h597q82 0 124 72q-42 72 -124 72h-77h-169q-130 0 -228.5 81.5t-122.5 204.5q24 122 122.5 204t228.5 82h597v-214h-597q-84 0 -125 -72q41 -72 125 -72h169h77q129 0 227 -82t124 -204q-26 -123 -124 -205t-227 -82h-597z" />
<glyph unicode="T" horiz-adv-x="1115" d="M50 743q0 147 105.5 252.5t252.5 105.5h308q144 -4 246.5 -109t102.5 -249h-214q0 97 -93 134q-93 -37 -93 -134v-598h-215v598q0 74 31 144h-73q-60 0 -102 -43t-42 -101h-214z" />
<glyph unicode="U" horiz-adv-x="1056" d="M50 504v239q0 147 105 252.5t254 105.5v-215q-60 0 -102 -42.5t-42 -100.5v-239q0 -60 42 -102t102 -42h238q59 0 102 42t43 102v239q0 58 -43 101t-102 43v214q146 0 250.5 -102.5t108.5 -246.5v-5v-4v-239v-5v-4q-4 -145 -108.5 -247.5t-250.5 -102.5h-238 q-149 0 -254 105.5t-105 253.5z" />
<glyph unicode="V" horiz-adv-x="745" d="M50 496v598h214v-598q0 -83 72 -124q72 41 72 125v76v170q0 129 82 227t205 124v-227q-72 -42 -72 -124v-170v-76q0 -130 -82.5 -228.5t-204.5 -123.5q-123 25 -204.5 123.5t-81.5 227.5z" />
<glyph unicode="W" horiz-adv-x="1389" d="M50 496v598h214v-598q0 -83 72 -124q72 41 72 125v76v170q0 129 81.5 227t204.5 124q122 -26 204.5 -124t82.5 -227v-170v-76q0 -84 72 -125q72 41 72 124v598h214v-598q0 -129 -82 -227.5t-204 -123.5q-123 25 -204.5 123.5t-81.5 228.5v76v170q0 81 -73 124 q-72 -42 -72 -124v-170v-76q0 -130 -82 -228.5t-204 -123.5q-123 25 -204.5 123.5t-81.5 227.5z" />
<glyph unicode="X" horiz-adv-x="673" d="M50 145v240q0 135 91 238q-91 102 -91 238v240h214v-240q0 -83 72 -125q73 42 73 125v77v163h214v-163v-77q0 -136 -91 -238q91 -103 91 -238v-76v-164h-214v164v76q0 82 -73 125q-72 -43 -72 -125v-240h-214z" />
<glyph unicode="Y" horiz-adv-x="672" d="M50 861v240h214v-240q0 -84 72 -125q72 41 72 125v77v163h214v-163v-77q0 -137 -90 -238q90 -102 90 -238v-76v-164h-214v164v76q0 83 -72 125q-123 24 -204.5 122.5t-81.5 228.5z" />
<glyph unicode="Z" horiz-adv-x="1049" d="M50 432h1q24 122 122.5 204t228.5 82h76h170q82 0 124 72q-42 72 -124 72h-598v214h598q129 0 227 -82t124 -204q-26 -123 -124 -204.5t-227 -81.5h-170h-76q-84 0 -125 -72q41 -72 125 -72h597v-215h-597q-130 0 -228.5 82t-123.5 205z" />
<glyph unicode="[" horiz-adv-x="569" />
<glyph unicode="\" horiz-adv-x="569" />
<glyph unicode="]" horiz-adv-x="569" />
<glyph unicode="^" horiz-adv-x="961" />
<glyph unicode="_" />
<glyph unicode="`" horiz-adv-x="682" />
<glyph unicode="a" horiz-adv-x="745" d="M50 145v598q0 129 82 227t204 124q123 -26 205 -124t82 -227v-77v-169q0 -84 72 -125v-227q-122 25 -204.5 123.5t-82.5 228.5v169v77q0 82 -72 124q-72 -42 -72 -124v-598h-214z" />
<glyph unicode="b" horiz-adv-x="1055" d="M50 504v597h597q147 0 252.5 -105.5t105.5 -252.5q0 -64 -20 -120q20 -57 20 -119q0 -147 -105.5 -253t-252.5 -106h-239q-147 0 -252.5 105.5t-105.5 253.5zM264 504q0 -60 42.5 -102t101.5 -42h239q110 0 139 105l-257 134h118q60 0 102 42t42 102q0 58 -42 100.5 t-102 42.5h-383v-382z" />
<glyph unicode="c" horiz-adv-x="1056" d="M50 504v239q0 147 106 252.5t253 105.5h239q148 0 253 -105.5t105 -252.5h-214q0 58 -42 100.5t-102 42.5h-239q-59 0 -101.5 -42.5t-42.5 -100.5v-239q0 -60 42.5 -102t101.5 -42h239q60 0 102 42t42 102h214q0 -146 -102 -250.5t-247 -107.5q-3 -1 -9 -1h-239 q-6 0 -9 1h-1q-144 3 -246.5 107.5t-102.5 250.5z" />
<glyph unicode="d" horiz-adv-x="1056" d="M50 504v597h597q148 0 253.5 -105.5t105.5 -252.5v-239q0 -147 -106 -253t-253 -106h-239q-147 0 -252.5 105.5t-105.5 253.5zM264 504q0 -60 43 -102t101 -42h239q60 0 102 42t42 102v239q0 58 -42 100.5t-102 42.5h-383v-382z" />
<glyph unicode="e" horiz-adv-x="1055" d="M50 504q0 62 20 119q-20 56 -20 120q0 147 105.5 252.5t252.5 105.5h597v-215h-214h-68h-315q-59 0 -101.5 -42.5t-42.5 -100.5q0 -60 43 -102t101 -42h118l-257 -134q32 -105 139 -105h239q60 0 102 42t42 102h214q0 -148 -105 -253.5t-253 -105.5h-239 q-147 0 -252.5 106t-105.5 253z" />
<glyph unicode="f" horiz-adv-x="1056" d="M50 145v320q0 73 29 139q-29 64 -29 139q0 147 106 252.5t253 105.5h597v-215h-214h-69h-314q-59 0 -101.5 -42.5t-42.5 -100.5q0 -60 42.5 -102t101.5 -42h117l-261 -137v-317h-215z" />
<glyph unicode="g" horiz-adv-x="1056" d="M50 145v598q0 147 105.5 252.5t253.5 105.5h238q74 0 139 -29q67 -28 114 -77q25 -25 44 -53l-195 -98q-20 20 -46 31q-23 11 -56 11h-59h-60h-119q-59 0 -102 -42.5t-43 -100.5v-383h383q60 0 102.5 42t42.5 102q0 58 -42.5 101t-102.5 43h-117l306 160 q170 -107 170 -304q0 -147 -105.5 -253t-253.5 -106h-597z" />
<glyph unicode="h" horiz-adv-x="1056" d="M50 463v7.5v8.5v6v7v6v6v239q0 147 105 252.5t253 105.5v-215q-55 0 -96 -37t-47 -90l261 -136h-118q-56 0 -97.5 -39t-45.5 -93q4 -55 45 -93t98 -38v-215q-138 0 -239.5 92t-116.5 226h-2zM528 623h117q58 0 100.5 42t43.5 101q-20 121 -142 121v214q137 0 239 -92.5 t117 -225.5v-1q2 -20 2 -30q0 -3 0.5 -5t0.5 -4v-239q0 -3 -0.5 -5t-0.5 -4q-4 -145 -108.5 -247.5t-249.5 -102.5v215q127 0 143 126z" />
<glyph unicode="i" horiz-adv-x="459" d="M50 145v598q0 147 105.5 252.5t253.5 105.5v-215q-60 0 -102 -42.5t-42 -100.5v-598h-215z" />
<glyph unicode="j" horiz-adv-x="458" d="M50 145v215q59 0 101.5 42t42.5 102v597h214v-597q0 -148 -105.5 -253.5t-252.5 -105.5z" />
<glyph unicode="k" horiz-adv-x="934" d="M50 145v101v114q59 0 101.5 42t42.5 102v298v299h214v-453q67 116 130.5 226t131.5 227h214l-169 -293q169 -107 169 -304q0 -147 -105.5 -253t-252.5 -106v215q59 0 101.5 42t42.5 102q0 58 -42.5 101t-101.5 43h-118v-144q0 -148 -105.5 -253.5t-252.5 -105.5z" />
<glyph unicode="l" horiz-adv-x="459" d="M50 504v597h215v-597q0 -60 42 -102t102 -42v-215q-148 0 -253.5 105.5t-105.5 253.5z" />
<glyph unicode="m" horiz-adv-x="1056" d="M50 145v598q0 147 105.5 252.5t252.5 105.5q63 0 120 -21q55 21 119 21q147 0 253 -105.5t106 -252.5v-598h-215v598q0 108 -105 138l-134 -256v118q0 58 -42.5 100.5t-101.5 42.5q-60 0 -102 -42.5t-42 -100.5v-299.5v-298.5h-214z" />
<glyph unicode="n" horiz-adv-x="1032" d="M50 145v598q0 129 82 227t205 124q122 -26 204 -124t82 -227v-170v-76q0 -84 72 -125q72 41 72 124v598h215v-598q0 -129 -82.5 -227.5t-204.5 -123.5q-123 25 -204.5 123.5t-81.5 228.5v76v170q0 82 -72 124q-72 -42 -72 -124v-598h-215z" />
<glyph unicode="o" horiz-adv-x="1116" d="M50 504v239q0 147 105.5 252.5t253.5 105.5h298q148 0 253.5 -105.5t105.5 -252.5v-239q0 -146 -102.5 -250.5t-246.5 -107.5l-308 -1q-148 0 -253.5 105t-105.5 254zM265 504q0 -60 42 -102t102 -42h298q59 0 102 42t43 102v239q0 58 -43 100.5t-102 42.5h-298 q-60 0 -102 -42.5t-42 -100.5v-239z" />
<glyph unicode="p" horiz-adv-x="1055" d="M50 504v597h597q102 0 189 -55q164 -102 169 -294v-1v-5v-3v-5v-4v-2q-5 -192 -169 -293q-87 -55 -189 -55h-104l-222 215h221h105q57 0 99.5 41t44.5 99v1v3v1v2q-2 57 -44.5 98.5t-99.5 41.5h-118h-265v-382q0 -60 42 -102t102 -42v-113.5v-101.5q-148 0 -253 105.5 t-105 253.5z" />
<glyph unicode="q" horiz-adv-x="1116" d="M50 504v239q0 147 105.5 252.5t253.5 105.5h298q148 0 253.5 -105.5t105.5 -252.5v-239q0 -146 -102.5 -250.5t-246.5 -107.5l-308 -1q-148 0 -253.5 105t-105.5 254zM265 504q0 -60 42 -102t102 -42h72q-30 69 -30 144v119h214v-119q0 -99 93 -135q94 36 94 135v239 q0 58 -43 100.5t-102 42.5h-298q-60 0 -102 -42.5t-42 -100.5v-239z" />
<glyph unicode="r" horiz-adv-x="1056" d="M50 504v597h597q147 0 253 -105.5t106 -252.5q0 -199 -170 -304l170 -294h-215q-67 117 -131 227t-130 227h117q59 0 101.5 42t42.5 102q0 58 -42.5 100.5t-101.5 42.5h-383v-382q0 -60 42 -102t102 -42v-114v-101q-148 0 -253 105.5t-105 253.5z" />
<glyph unicode="s" horiz-adv-x="1048" d="M50 145v215h597q82 0 124 72q-42 72 -124 72h-77h-169q-130 0 -228.5 81.5t-122.5 204.5q24 122 122.5 204t228.5 82h597v-214h-597q-84 0 -125 -72q41 -72 125 -72h169h77q129 0 227 -82t124 -204q-26 -123 -124 -205t-227 -82h-597z" />
<glyph unicode="t" horiz-adv-x="1115" d="M50 743q0 147 105.5 252.5t252.5 105.5h308q144 -4 246.5 -109t102.5 -249h-214q0 97 -93 134q-93 -37 -93 -134v-598h-215v598q0 74 31 144h-73q-60 0 -102 -43t-42 -101h-214z" />
<glyph unicode="u" horiz-adv-x="1056" d="M50 504v239q0 147 105 252.5t254 105.5v-215q-60 0 -102 -42.5t-42 -100.5v-239q0 -60 42 -102t102 -42h238q59 0 102 42t43 102v239q0 58 -43 101t-102 43v214q146 0 250.5 -102.5t108.5 -246.5v-5v-4v-239v-5v-4q-4 -145 -108.5 -247.5t-250.5 -102.5h-238 q-149 0 -254 105.5t-105 253.5z" />
<glyph unicode="v" horiz-adv-x="745" d="M50 496v598h214v-598q0 -83 72 -124q72 41 72 125v76v170q0 129 82 227t205 124v-227q-72 -42 -72 -124v-170v-76q0 -130 -82.5 -228.5t-204.5 -123.5q-123 25 -204.5 123.5t-81.5 227.5z" />
<glyph unicode="w" horiz-adv-x="1389" d="M50 496v598h214v-598q0 -83 72 -124q72 41 72 125v76v170q0 129 81.5 227t204.5 124q122 -26 204.5 -124t82.5 -227v-170v-76q0 -84 72 -125q72 41 72 124v598h214v-598q0 -129 -82 -227.5t-204 -123.5q-123 25 -204.5 123.5t-81.5 228.5v76v170q0 81 -73 124 q-72 -42 -72 -124v-170v-76q0 -130 -82 -228.5t-204 -123.5q-123 25 -204.5 123.5t-81.5 227.5z" />
<glyph unicode="x" horiz-adv-x="673" d="M50 145v240q0 135 91 238q-91 102 -91 238v240h214v-240q0 -83 72 -125q73 42 73 125v77v163h214v-163v-77q0 -136 -91 -238q91 -103 91 -238v-76v-164h-214v164v76q0 82 -73 125q-72 -43 -72 -125v-240h-214z" />
<glyph unicode="y" horiz-adv-x="672" d="M50 861v240h214v-240q0 -84 72 -125q72 41 72 125v77v163h214v-163v-77q0 -137 -90 -238q90 -102 90 -238v-76v-164h-214v164v76q0 83 -72 125q-123 24 -204.5 122.5t-81.5 228.5z" />
<glyph unicode="z" horiz-adv-x="1049" d="M50 432h1q24 122 122.5 204t228.5 82h76h170q82 0 124 72q-42 72 -124 72h-598v214h598q129 0 227 -82t124 -204q-26 -123 -124 -204.5t-227 -81.5h-170h-76q-84 0 -125 -72q41 -72 125 -72h597v-215h-597q-130 0 -228.5 82t-123.5 205z" />
<glyph unicode="{" horiz-adv-x="684" />
<glyph unicode="|" horiz-adv-x="532" />
<glyph unicode="}" horiz-adv-x="684" />
<glyph unicode="~" horiz-adv-x="1196" />
<glyph unicode="&#xa1;" horiz-adv-x="682" />
<glyph unicode="&#xa2;" />
<glyph unicode="&#xa3;" />
<glyph unicode="&#xa4;" />
<glyph unicode="&#xa5;" />
<glyph unicode="&#xa6;" horiz-adv-x="532" />
<glyph unicode="&#xa7;" />
<glyph unicode="&#xa8;" horiz-adv-x="682" />
<glyph unicode="&#xa9;" horiz-adv-x="1509" />
<glyph unicode="&#xaa;" horiz-adv-x="758" />
<glyph unicode="&#xab;" />
<glyph unicode="&#xac;" horiz-adv-x="1196" />
<glyph unicode="&#xad;" horiz-adv-x="682" />
<glyph unicode="&#xae;" horiz-adv-x="1509" />
<glyph unicode="&#xaf;" horiz-adv-x="1131" />
<glyph unicode="&#xb0;" horiz-adv-x="819" />
<glyph unicode="&#xb1;" horiz-adv-x="1124" />
<glyph unicode="&#xb2;" horiz-adv-x="682" />
<glyph unicode="&#xb3;" horiz-adv-x="682" />
<glyph unicode="&#xb4;" horiz-adv-x="682" />
<glyph unicode="&#xb5;" horiz-adv-x="1180" />
<glyph unicode="&#xb6;" horiz-adv-x="1100" />
<glyph unicode="&#xb7;" horiz-adv-x="569" />
<glyph unicode="&#xb8;" horiz-adv-x="682" />
<glyph unicode="&#xb9;" horiz-adv-x="682" />
<glyph unicode="&#xba;" horiz-adv-x="748" />
<glyph unicode="&#xbb;" />
<glyph unicode="&#xbc;" horiz-adv-x="1708" />
<glyph unicode="&#xbd;" horiz-adv-x="1708" />
<glyph unicode="&#xbe;" horiz-adv-x="1708" />
<glyph unicode="&#xbf;" horiz-adv-x="1251" />
<glyph unicode="&#xc0;" horiz-adv-x="1366" />
<glyph unicode="&#xc1;" horiz-adv-x="1366" />
<glyph unicode="&#xc2;" horiz-adv-x="1366" />
<glyph unicode="&#xc3;" horiz-adv-x="1366" />
<glyph unicode="&#xc4;" horiz-adv-x="1366" />
<glyph unicode="&#xc5;" horiz-adv-x="1366" />
<glyph unicode="&#xc6;" horiz-adv-x="2048" />
<glyph unicode="&#xc7;" horiz-adv-x="1479" />
<glyph unicode="&#xc8;" horiz-adv-x="1366" />
<glyph unicode="&#xc9;" horiz-adv-x="1366" />
<glyph unicode="&#xca;" horiz-adv-x="1366" />
<glyph unicode="&#xcb;" horiz-adv-x="1366" />
<glyph unicode="&#xcc;" horiz-adv-x="569" />
<glyph unicode="&#xcd;" horiz-adv-x="569" />
<glyph unicode="&#xce;" horiz-adv-x="569" />
<glyph unicode="&#xcf;" horiz-adv-x="569" />
<glyph unicode="&#xd0;" horiz-adv-x="1479" />
<glyph unicode="&#xd1;" horiz-adv-x="1479" />
<glyph unicode="&#xd2;" horiz-adv-x="1593" />
<glyph unicode="&#xd3;" horiz-adv-x="1593" />
<glyph unicode="&#xd4;" horiz-adv-x="1593" />
<glyph unicode="&#xd5;" horiz-adv-x="1593" />
<glyph unicode="&#xd6;" horiz-adv-x="1593" />
<glyph unicode="&#xd7;" horiz-adv-x="1196" />
<glyph unicode="&#xd8;" horiz-adv-x="1593" />
<glyph unicode="&#xd9;" horiz-adv-x="1479" />
<glyph unicode="&#xda;" horiz-adv-x="1479" />
<glyph unicode="&#xdb;" horiz-adv-x="1479" />
<glyph unicode="&#xdc;" horiz-adv-x="1479" />
<glyph unicode="&#xdd;" horiz-adv-x="1366" />
<glyph unicode="&#xde;" horiz-adv-x="1366" />
<glyph unicode="&#xdf;" horiz-adv-x="1251" />
<glyph unicode="&#xe0;" />
<glyph unicode="&#xe1;" />
<glyph unicode="&#xe2;" />
<glyph unicode="&#xe3;" />
<glyph unicode="&#xe4;" />
<glyph unicode="&#xe5;" />
<glyph unicode="&#xe6;" horiz-adv-x="1821" />
<glyph unicode="&#xe7;" horiz-adv-x="1024" />
<glyph unicode="&#xe8;" />
<glyph unicode="&#xe9;" />
<glyph unicode="&#xea;" />
<glyph unicode="&#xeb;" />
<glyph unicode="&#xec;" horiz-adv-x="569" />
<glyph unicode="&#xed;" horiz-adv-x="569" />
<glyph unicode="&#xee;" horiz-adv-x="569" />
<glyph unicode="&#xef;" horiz-adv-x="569" />
<glyph unicode="&#xf0;" />
<glyph unicode="&#xf1;" />
<glyph unicode="&#xf2;" />
<glyph unicode="&#xf3;" />
<glyph unicode="&#xf4;" />
<glyph unicode="&#xf5;" />
<glyph unicode="&#xf6;" />
<glyph unicode="&#xf7;" horiz-adv-x="1124" />
<glyph unicode="&#xf8;" horiz-adv-x="1251" />
<glyph unicode="&#xf9;" />
<glyph unicode="&#xfa;" />
<glyph unicode="&#xfb;" />
<glyph unicode="&#xfc;" />
<glyph unicode="&#xfd;" horiz-adv-x="1024" />
<glyph unicode="&#xfe;" />
<glyph unicode="&#xff;" horiz-adv-x="1024" />
<glyph unicode="&#x152;" horiz-adv-x="2048" />
<glyph unicode="&#x153;" horiz-adv-x="1933" />
<glyph unicode="&#x178;" horiz-adv-x="1366" />
<glyph unicode="&#x2c6;" horiz-adv-x="682" />
<glyph unicode="&#x2dc;" horiz-adv-x="682" />
<glyph unicode="&#x2000;" horiz-adv-x="682" />
<glyph unicode="&#x2001;" horiz-adv-x="1365" />
<glyph unicode="&#x2002;" horiz-adv-x="682" />
<glyph unicode="&#x2003;" horiz-adv-x="1365" />
<glyph unicode="&#x2004;" horiz-adv-x="455" />
<glyph unicode="&#x2005;" horiz-adv-x="341" />
<glyph unicode="&#x2006;" horiz-adv-x="227" />
<glyph unicode="&#x2007;" horiz-adv-x="227" />
<glyph unicode="&#x2008;" horiz-adv-x="170" />
<glyph unicode="&#x2009;" horiz-adv-x="273" />
<glyph unicode="&#x200a;" horiz-adv-x="75" />
<glyph unicode="&#x2010;" horiz-adv-x="682" />
<glyph unicode="&#x2011;" horiz-adv-x="682" />
<glyph unicode="&#x2012;" horiz-adv-x="682" />
<glyph unicode="&#x2013;" />
<glyph unicode="&#x2014;" horiz-adv-x="2048" />
<glyph unicode="&#x2018;" horiz-adv-x="455" />
<glyph unicode="&#x2019;" horiz-adv-x="455" />
<glyph unicode="&#x201a;" horiz-adv-x="455" />
<glyph unicode="&#x201c;" horiz-adv-x="682" />
<glyph unicode="&#x201d;" horiz-adv-x="682" />
<glyph unicode="&#x201e;" horiz-adv-x="682" />
<glyph unicode="&#x2022;" horiz-adv-x="717" />
<glyph unicode="&#x2026;" horiz-adv-x="2048" />
<glyph unicode="&#x202f;" horiz-adv-x="273" />
<glyph unicode="&#x2039;" horiz-adv-x="682" />
<glyph unicode="&#x203a;" horiz-adv-x="682" />
<glyph unicode="&#x205f;" horiz-adv-x="341" />
<glyph unicode="&#x20ac;" />
<glyph unicode="&#x2122;" horiz-adv-x="2048" />
<glyph unicode="&#x25fc;" horiz-adv-x="1100" d="M0 0v1100h1100v-1100h-1100z" />
</font>
</defs>
</svg>
